{
  "accessors": [
    {
      "bufferView": 0,
      "componentType": 5125,
      "count": 2868,
      "type": "SCALAR"
    },
    {
      "bufferView": 1,
      "componentType": 5126,
      "count": 608,
      "max": [
        2.6421902179718,
        2.64218974113464,
        0.18532532453537
      ],
      "min": [
        -2.64218902587891,
        -2.64218854904175,
        -0.18532595038414
      ],
      "type": "VEC3"
    },
    {
      "bufferView": 2,
      "componentType": 5126,
      "count": 608,
      "type": "VEC3"
    },
    {
      "bufferView": 3,
      "componentType": 5126,
      "count": 608,
      "type": "VEC4"
    },
    {
      "bufferView": 4,
      "componentType": 5126,
      "count": 608,
      "type": "VEC2"
    }
  ],
  "asset": {
    "generator": "Adobe Substance 3D Painter 8.3.0",
    "version": "2.0"
  },
  "bufferViews": [
    {
      "buffer": 0,
      "byteLength": 11472,
      "target": 34963
    },
    {
      "buffer": 0,
      "byteLength": 7296,
      "byteOffset": 11472,
      "target": 34962
    },
    {
      "buffer": 0,
      "byteLength": 7296,
      "byteOffset": 18768,
      "target": 34962
    },
    {
      "buffer": 0,
      "byteLength": 9728,
      "byteOffset": 26064,
      "target": 34962
    },
    {
      "buffer": 0,
      "byteLength": 4864,
      "byteOffset": 35792,
      "target": 34962
    }
  ],
  "buffers": [
    {
      "byteLength": 40656,
      "uri": "coin.bin"
    }
  ],
  "images": [
    {
      "uri": "aiStandardSurface1_baseColor.png"
    },
    {
      "uri": "aiStandardSurface1_occlusionRoughnessMetallic.png"
    },
    {
      "uri": "aiStandardSurface1_normal.png"
    }
  ],
  "materials": [
    {
      "alphaMode": "OPAQUE",
      "name": "aiStandardSurface1",
      "normalTexture": {
        "index": 2
      },
      "occlusionTexture": {
        "index": 1
      },
      "pbrMetallicRoughness": {
        "baseColorTexture": {
          "index": 0
        },
        "metallicRoughnessTexture": {
          "index": 1
        }
      }
    }
  ],
  "meshes": [
    {
      "name": "pCylinder1",
      "primitives": [
        {
          "attributes": {
            "NORMAL": 2,
            "POSITION": 1,
            "TANGENT": 3,
            "TEXCOORD_0": 4
          },
          "indices": 0,
          "material": 0,
          "mode": 4
        }
      ]
    }
  ],
  "nodes": [
    {
      "children": [
        1
      ],
      "name": "RootNode"
    },
    {
      "children": [
        2
      ],
      "name": "pCylinder1"
    },
    {
      "mesh": 0,
      "name": "pCylinder1"
    }
  ],
  "samplers": [
    {
      "magFilter": 9729,
      "minFilter": 9985,
      "wrapS": 10497,
      "wrapT": 10497
    }
  ],
  "scene": 0,
  "scenes": [
    {
      "name": "Scene",
      "nodes": [
        0
      ]
    }
  ],
  "textures": [
    {
      "sampler": 0,
      "source": 0
    },
    {
      "sampler": 0,
      "source": 1
    },
    {
      "sampler": 0,
      "source": 2
    }
  ]
}