{
  "accessors": [
    {
      "bufferView": 0,
      "componentType": 5125,
      "count": 804,
      "type": "SCALAR"
    },
    {
      "bufferView": 1,
      "componentType": 5126,
      "count": 320,
      "max": [
        6.23979806900024,
        8.36160850524902,
        -0.0225523877888918
      ],
      "min": [
        -0.14365553855896,
        -1.27114248275757,
        -0.0225523915141821
      ],
      "type": "VEC3"
    },
    {
      "bufferView": 2,
      "componentType": 5126,
      "count": 320,
      "type": "VEC3"
    },
    {
      "bufferView": 3,
      "componentType": 5126,
      "count": 320,
      "type": "VEC4"
    },
    {
      "bufferView": 4,
      "componentType": 5126,
      "count": 320,
      "type": "VEC2"
    },
    {
      "bufferView": 5,
      "componentType": 5125,
      "count": 804,
      "type": "SCALAR"
    },
    {
      "bufferView": 6,
      "componentType": 5126,
      "count": 433,
      "max": [
        6.23979806900024,
        8.36160850524902,
        0.0225523896515369
      ],
      "min": [
        -0.14365553855896,
        -1.27114248275757,
        0.0225523859262466
      ],
      "type": "VEC3"
    },
    {
      "bufferView": 7,
      "componentType": 5126,
      "count": 433,
      "type": "VEC3"
    },
    {
      "bufferView": 8,
      "componentType": 5126,
      "count": 433,
      "type": "VEC4"
    },
    {
      "bufferView": 9,
      "componentType": 5126,
      "count": 433,
      "type": "VEC2"
    },
    {
      "bufferView": 10,
      "componentType": 5125,
      "count": 5034,
      "type": "SCALAR"
    },
    {
      "bufferView": 11,
      "componentType": 5126,
      "count": 1372,
      "max": [
        6.28979825973511,
        8.4116096496582,
        0.183427006006241
      ],
      "min": [
        -0.193655490875244,
        -1.32114267349243,
        -0.182111576199532
      ],
      "type": "VEC3"
    },
    {
      "bufferView": 12,
      "componentType": 5126,
      "count": 1372,
      "type": "VEC3"
    },
    {
      "bufferView": 13,
      "componentType": 5126,
      "count": 1372,
      "type": "VEC4"
    },
    {
      "bufferView": 14,
      "componentType": 5126,
      "count": 1372,
      "type": "VEC2"
    },
    {
      "bufferView": 15,
      "componentType": 5125,
      "count": 3774,
      "type": "SCALAR"
    },
    {
      "bufferView": 16,
      "componentType": 5126,
      "count": 840,
      "max": [
        5.34423923492432,
        7.1587085723877,
        0.149542093276978
      ],
      "min": [
        0.689948320388794,
        2.50441956520081,
        -0.0012294128537178
      ],
      "type": "VEC3"
    },
    {
      "bufferView": 17,
      "componentType": 5126,
      "count": 840,
      "type": "VEC3"
    },
    {
      "bufferView": 18,
      "componentType": 5126,
      "count": 840,
      "type": "VEC4"
    },
    {
      "bufferView": 19,
      "componentType": 5126,
      "count": 840,
      "type": "VEC2"
    },
    {
      "bufferView": 20,
      "componentType": 5125,
      "count": 12663,
      "type": "SCALAR"
    },
    {
      "bufferView": 21,
      "componentType": 5126,
      "count": 4401,
      "max": [
        5.50804042816162,
        6.45298099517822,
        -0.00260335206985474
      ],
      "min": [
        0.546529531478882,
        3.43063068389893,
        -0.158601582050323
      ],
      "type": "VEC3"
    },
    {
      "bufferView": 22,
      "componentType": 5126,
      "count": 4401,
      "type": "VEC3"
    },
    {
      "bufferView": 23,
      "componentType": 5126,
      "count": 4401,
      "type": "VEC4"
    },
    {
      "bufferView": 24,
      "componentType": 5126,
      "count": 4401,
      "type": "VEC2"
    },
    {
      "bufferView": 25,
      "componentType": 5125,
      "count": 133128,
      "type": "SCALAR"
    },
    {
      "bufferView": 26,
      "componentType": 5126,
      "count": 48282,
      "max": [
        1.83830952644348,
        0.550130844116211,
        -0.0152631774544716
      ],
      "min": [
        0.139950275421143,
        -0.98423957824707,
        -0.214339882135391
      ],
      "type": "VEC3"
    },
    {
      "bufferView": 27,
      "componentType": 5126,
      "count": 48282,
      "type": "VEC3"
    },
    {
      "bufferView": 28,
      "componentType": 5126,
      "count": 48282,
      "type": "VEC4"
    },
    {
      "bufferView": 29,
      "componentType": 5126,
      "count": 48282,
      "type": "VEC2"
    },
    {
      "bufferView": 30,
      "componentType": 5125,
      "count": 126306,
      "type": "SCALAR"
    },
    {
      "bufferView": 31,
      "componentType": 5126,
      "count": 41940,
      "max": [
        5.91174411773682,
        0.540172338485718,
        0.215281963348389
      ],
      "min": [
        4.40341520309448,
        -0.968156814575195,
        0.0158354863524437
      ],
      "type": "VEC3"
    },
    {
      "bufferView": 32,
      "componentType": 5126,
      "count": 41940,
      "type": "VEC3"
    },
    {
      "bufferView": 33,
      "componentType": 5126,
      "count": 41940,
      "type": "VEC4"
    },
    {
      "bufferView": 34,
      "componentType": 5126,
      "count": 41940,
      "type": "VEC2"
    },
    {
      "bufferView": 35,
      "componentType": 5125,
      "count": 45915,
      "type": "SCALAR"
    },
    {
      "bufferView": 36,
      "componentType": 5126,
      "count": 18019,
      "max": [
        5.91109180450439,
        0.547831773757935,
        0.214679911732674
      ],
      "min": [
        0.201297760009766,
        -1.02956390380859,
        -0.213681697845459
      ],
      "type": "VEC3"
    },
    {
      "bufferView": 37,
      "componentType": 5126,
      "count": 18019,
      "type": "VEC3"
    },
    {
      "bufferView": 38,
      "componentType": 5126,
      "count": 18019,
      "type": "VEC4"
    },
    {
      "bufferView": 39,
      "componentType": 5126,
      "count": 18019,
      "type": "VEC2"
    }
  ],
  "asset": {
    "generator": "Adobe Substance 3D Painter 8.3.0",
    "version": "2.0"
  },
  "bufferViews": [
    {
      "buffer": 0,
      "byteLength": 3216,
      "target": 34963
    },
    {
      "buffer": 0,
      "byteLength": 3840,
      "byteOffset": 3216,
      "target": 34962
    },
    {
      "buffer": 0,
      "byteLength": 3840,
      "byteOffset": 7056,
      "target": 34962
    },
    {
      "buffer": 0,
      "byteLength": 5120,
      "byteOffset": 10896,
      "target": 34962
    },
    {
      "buffer": 0,
      "byteLength": 2560,
      "byteOffset": 16016,
      "target": 34962
    },
    {
      "buffer": 0,
      "byteLength": 3216,
      "byteOffset": 18576,
      "target": 34963
    },
    {
      "buffer": 0,
      "byteLength": 5196,
      "byteOffset": 21792,
      "target": 34962
    },
    {
      "buffer": 0,
      "byteLength": 5196,
      "byteOffset": 26988,
      "target": 34962
    },
    {
      "buffer": 0,
      "byteLength": 6928,
      "byteOffset": 32184,
      "target": 34962
    },
    {
      "buffer": 0,
      "byteLength": 3464,
      "byteOffset": 39112,
      "target": 34962
    },
    {
      "buffer": 0,
      "byteLength": 20136,
      "byteOffset": 42576,
      "target": 34963
    },
    {
      "buffer": 0,
      "byteLength": 16464,
      "byteOffset": 62712,
      "target": 34962
    },
    {
      "buffer": 0,
      "byteLength": 16464,
      "byteOffset": 79176,
      "target": 34962
    },
    {
      "buffer": 0,
      "byteLength": 21952,
      "byteOffset": 95640,
      "target": 34962
    },
    {
      "buffer": 0,
      "byteLength": 10976,
      "byteOffset": 117592,
      "target": 34962
    },
    {
      "buffer": 0,
      "byteLength": 15096,
      "byteOffset": 128568,
      "target": 34963
    },
    {
      "buffer": 0,
      "byteLength": 10080,
      "byteOffset": 143664,
      "target": 34962
    },
    {
      "buffer": 0,
      "byteLength": 10080,
      "byteOffset": 153744,
      "target": 34962
    },
    {
      "buffer": 0,
      "byteLength": 13440,
      "byteOffset": 163824,
      "target": 34962
    },
    {
      "buffer": 0,
      "byteLength": 6720,
      "byteOffset": 177264,
      "target": 34962
    },
    {
      "buffer": 0,
      "byteLength": 50652,
      "byteOffset": 183984,
      "target": 34963
    },
    {
      "buffer": 0,
      "byteLength": 52812,
      "byteOffset": 234636,
      "target": 34962
    },
    {
      "buffer": 0,
      "byteLength": 52812,
      "byteOffset": 287448,
      "target": 34962
    },
    {
      "buffer": 0,
      "byteLength": 70416,
      "byteOffset": 340260,
      "target": 34962
    },
    {
      "buffer": 0,
      "byteLength": 35208,
      "byteOffset": 410676,
      "target": 34962
    },
    {
      "buffer": 0,
      "byteLength": 532512,
      "byteOffset": 445884,
      "target": 34963
    },
    {
      "buffer": 0,
      "byteLength": 579384,
      "byteOffset": 978396,
      "target": 34962
    },
    {
      "buffer": 0,
      "byteLength": 579384,
      "byteOffset": 1557780,
      "target": 34962
    },
    {
      "buffer": 0,
      "byteLength": 772512,
      "byteOffset": 2137164,
      "target": 34962
    },
    {
      "buffer": 0,
      "byteLength": 386256,
      "byteOffset": 2909676,
      "target": 34962
    },
    {
      "buffer": 0,
      "byteLength": 505224,
      "byteOffset": 3295932,
      "target": 34963
    },
    {
      "buffer": 0,
      "byteLength": 503280,
      "byteOffset": 3801156,
      "target": 34962
    },
    {
      "buffer": 0,
      "byteLength": 503280,
      "byteOffset": 4304436,
      "target": 34962
    },
    {
      "buffer": 0,
      "byteLength": 671040,
      "byteOffset": 4807716,
      "target": 34962
    },
    {
      "buffer": 0,
      "byteLength": 335520,
      "byteOffset": 5478756,
      "target": 34962
    },
    {
      "buffer": 0,
      "byteLength": 183660,
      "byteOffset": 5814276,
      "target": 34963
    },
    {
      "buffer": 0,
      "byteLength": 216228,
      "byteOffset": 5997936,
      "target": 34962
    },
    {
      "buffer": 0,
      "byteLength": 216228,
      "byteOffset": 6214164,
      "target": 34962
    },
    {
      "buffer": 0,
      "byteLength": 288304,
      "byteOffset": 6430392,
      "target": 34962
    },
    {
      "buffer": 0,
      "byteLength": 144152,
      "byteOffset": 6718696,
      "target": 34962
    }
  ],
  "buffers": [
    {
      "byteLength": 6862848,
      "uri": "nft.bin"
    }
  ],
  "images": [
    {
      "uri": "nft_s_baseColor.png"
    },
    {
      "uri": "nft_s_occlusionRoughnessMetallic.png"
    },
    {
      "uri": "nft_s_normal.png"
    },
    {
      "uri": "video_back_s_baseColor.png"
    },
    {
      "uri": "video_back_s_occlusionRoughnessMetallic.png"
    },
    {
      "uri": "video_back_s_normal.png"
    },
    {
      "uri": "video_front_s_baseColor.png"
    },
    {
      "uri": "video_front_s_occlusionRoughnessMetallic.png"
    },
    {
      "uri": "video_front_s_normal.png"
    }
  ],
  "materials": [
    {
      "alphaMode": "OPAQUE",
      "name": "nft_s",
      "normalTexture": {
        "index": 2
      },
      "occlusionTexture": {
        "index": 1
      },
      "pbrMetallicRoughness": {
        "baseColorTexture": {
          "index": 0
        },
        "metallicRoughnessTexture": {
          "index": 1
        }
      }
    },
    {
      "alphaMode": "OPAQUE",
      "name": "video_back_s",
      "normalTexture": {
        "index": 5
      },
      "occlusionTexture": {
        "index": 4
      },
      "pbrMetallicRoughness": {
        "baseColorTexture": {
          "index": 3
        },
        "metallicRoughnessTexture": {
          "index": 4
        }
      }
    },
    {
      "alphaMode": "OPAQUE",
      "name": "video_front_s",
      "normalTexture": {
        "index": 8
      },
      "occlusionTexture": {
        "index": 7
      },
      "pbrMetallicRoughness": {
        "baseColorTexture": {
          "index": 6
        },
        "metallicRoughnessTexture": {
          "index": 7
        }
      }
    }
  ],
  "meshes": [
    {
      "name": "video_back",
      "primitives": [
        {
          "attributes": {
            "NORMAL": 2,
            "POSITION": 1,
            "TANGENT": 3,
            "TEXCOORD_0": 4
          },
          "indices": 0,
          "material": 1,
          "mode": 4
        }
      ]
    },
    {
      "name": "video_front",
      "primitives": [
        {
          "attributes": {
            "NORMAL": 7,
            "POSITION": 6,
            "TANGENT": 8,
            "TEXCOORD_0": 9
          },
          "indices": 5,
          "material": 2,
          "mode": 4
        }
      ]
    },
    {
      "name": "polySurface1091",
      "primitives": [
        {
          "attributes": {
            "NORMAL": 12,
            "POSITION": 11,
            "TANGENT": 13,
            "TEXCOORD_0": 14
          },
          "indices": 10,
          "material": 0,
          "mode": 4
        }
      ]
    },
    {
      "name": "polySurface543",
      "primitives": [
        {
          "attributes": {
            "NORMAL": 17,
            "POSITION": 16,
            "TANGENT": 18,
            "TEXCOORD_0": 19
          },
          "indices": 15,
          "material": 0,
          "mode": 4
        }
      ]
    },
    {
      "name": "polySurface545",
      "primitives": [
        {
          "attributes": {
            "NORMAL": 22,
            "POSITION": 21,
            "TANGENT": 23,
            "TEXCOORD_0": 24
          },
          "indices": 20,
          "material": 0,
          "mode": 4
        }
      ]
    },
    {
      "name": "polySurface550",
      "primitives": [
        {
          "attributes": {
            "NORMAL": 27,
            "POSITION": 26,
            "TANGENT": 28,
            "TEXCOORD_0": 29
          },
          "indices": 25,
          "material": 0,
          "mode": 4
        }
      ]
    },
    {
      "name": "polySurface742",
      "primitives": [
        {
          "attributes": {
            "NORMAL": 32,
            "POSITION": 31,
            "TANGENT": 33,
            "TEXCOORD_0": 34
          },
          "indices": 30,
          "material": 0,
          "mode": 4
        }
      ]
    },
    {
      "name": "polySurface933",
      "primitives": [
        {
          "attributes": {
            "NORMAL": 37,
            "POSITION": 36,
            "TANGENT": 38,
            "TEXCOORD_0": 39
          },
          "indices": 35,
          "material": 0,
          "mode": 4
        }
      ]
    }
  ],
  "nodes": [
    {
      "children": [
        1,
        3,
        5,
        7,
        9,
        11,
        13,
        15
      ],
      "name": "RootNode"
    },
    {
      "children": [
        2
      ],
      "name": "video_back"
    },
    {
      "mesh": 0,
      "name": "video_back"
    },
    {
      "children": [
        4
      ],
      "name": "video_front"
    },
    {
      "mesh": 1,
      "name": "video_front"
    },
    {
      "children": [
        6
      ],
      "name": "polySurface1091"
    },
    {
      "mesh": 2,
      "name": "polySurface1091"
    },
    {
      "children": [
        8
      ],
      "name": "polySurface543"
    },
    {
      "mesh": 3,
      "name": "polySurface543"
    },
    {
      "children": [
        10
      ],
      "name": "polySurface545"
    },
    {
      "mesh": 4,
      "name": "polySurface545"
    },
    {
      "children": [
        12
      ],
      "name": "polySurface550"
    },
    {
      "mesh": 5,
      "name": "polySurface550"
    },
    {
      "children": [
        14
      ],
      "name": "polySurface742"
    },
    {
      "mesh": 6,
      "name": "polySurface742"
    },
    {
      "children": [
        16
      ],
      "name": "polySurface933"
    },
    {
      "mesh": 7,
      "name": "polySurface933"
    }
  ],
  "samplers": [
    {
      "magFilter": 9729,
      "minFilter": 9985,
      "wrapS": 10497,
      "wrapT": 10497
    }
  ],
  "scene": 0,
  "scenes": [
    {
      "name": "Scene",
      "nodes": [
        0
      ]
    }
  ],
  "textures": [
    {
      "sampler": 0,
      "source": 0
    },
    {
      "sampler": 0,
      "source": 1
    },
    {
      "sampler": 0,
      "source": 2
    },
    {
      "sampler": 0,
      "source": 3
    },
    {
      "sampler": 0,
      "source": 4
    },
    {
      "sampler": 0,
      "source": 5
    },
    {
      "sampler": 0,
      "source": 6
    },
    {
      "sampler": 0,
      "source": 7
    },
    {
      "sampler": 0,
      "source": 8
    }
  ]
}