{
  "accessors": [
    {
      "bufferView": 0,
      "componentType": 5125,
      "count": 804,
      "type": "SCALAR"
    },
    {
      "bufferView": 1,
      "componentType": 5126,
      "count": 320,
      "max": [
        6.23979806900024,
        8.36160850524902,
        -0.0225523877888918
      ],
      "min": [
        -0.14365553855896,
        -1.27114248275757,
        -0.0225523915141821
      ],
      "type": "VEC3"
    },
    {
      "bufferView": 2,
      "componentType": 5126,
      "count": 320,
      "type": "VEC3"
    },
    {
      "bufferView": 3,
      "componentType": 5126,
      "count": 320,
      "type": "VEC4"
    },
    {
      "bufferView": 4,
      "componentType": 5126,
      "count": 320,
      "type": "VEC2"
    },
    {
      "bufferView": 5,
      "componentType": 5125,
      "count": 804,
      "type": "SCALAR"
    },
    {
      "bufferView": 6,
      "componentType": 5126,
      "count": 433,
      "max": [
        6.23979806900024,
        8.36160850524902,
        0.0225523896515369
      ],
      "min": [
        -0.14365553855896,
        -1.27114248275757,
        0.0225523859262466
      ],
      "type": "VEC3"
    },
    {
      "bufferView": 7,
      "componentType": 5126,
      "count": 433,
      "type": "VEC3"
    },
    {
      "bufferView": 8,
      "componentType": 5126,
      "count": 433,
      "type": "VEC4"
    },
    {
      "bufferView": 9,
      "componentType": 5126,
      "count": 433,
      "type": "VEC2"
    },
    {
      "bufferView": 10,
      "componentType": 5125,
      "count": 1236,
      "type": "SCALAR"
    },
    {
      "bufferView": 11,
      "componentType": 5126,
      "count": 312,
      "max": [
        6.2377986907959,
        0.871071577072144,
        0.183427482843399
      ],
      "min": [
        -0.141655683517456,
        -1.27746200561523,
        -0.182111099362373
      ],
      "type": "VEC3"
    },
    {
      "bufferView": 12,
      "componentType": 5126,
      "count": 312,
      "type": "VEC3"
    },
    {
      "bufferView": 13,
      "componentType": 5126,
      "count": 312,
      "type": "VEC4"
    },
    {
      "bufferView": 14,
      "componentType": 5126,
      "count": 312,
      "type": "VEC2"
    },
    {
      "bufferView": 15,
      "componentType": 5125,
      "count": 3798,
      "type": "SCALAR"
    },
    {
      "bufferView": 16,
      "componentType": 5126,
      "count": 1052,
      "max": [
        6.28979825973511,
        8.4116096496582,
        0.062552385032177
      ],
      "min": [
        -0.193655490875244,
        -1.32114267349243,
        -0.0625523924827576
      ],
      "type": "VEC3"
    },
    {
      "bufferView": 17,
      "componentType": 5126,
      "count": 1052,
      "type": "VEC3"
    },
    {
      "bufferView": 18,
      "componentType": 5126,
      "count": 1052,
      "type": "VEC4"
    },
    {
      "bufferView": 19,
      "componentType": 5126,
      "count": 1052,
      "type": "VEC2"
    },
    {
      "bufferView": 20,
      "componentType": 5125,
      "count": 1614,
      "type": "SCALAR"
    },
    {
      "bufferView": 21,
      "componentType": 5126,
      "count": 300,
      "max": [
        5.13139057159424,
        6.94585800170898,
        0.10875216126442
      ],
      "min": [
        0.902797937393188,
        2.7172691822052,
        0.108750648796558
      ],
      "type": "VEC3"
    },
    {
      "bufferView": 22,
      "componentType": 5126,
      "count": 300,
      "type": "VEC3"
    },
    {
      "bufferView": 23,
      "componentType": 5126,
      "count": 300,
      "type": "VEC4"
    },
    {
      "bufferView": 24,
      "componentType": 5126,
      "count": 300,
      "type": "VEC2"
    },
    {
      "bufferView": 25,
      "componentType": 5125,
      "count": 2160,
      "type": "SCALAR"
    },
    {
      "bufferView": 26,
      "componentType": 5126,
      "count": 540,
      "max": [
        5.34423923492432,
        7.1587085723877,
        0.149542093276978
      ],
      "min": [
        0.689948320388794,
        2.50441956520081,
        -0.0012294128537178
      ],
      "type": "VEC3"
    },
    {
      "bufferView": 27,
      "componentType": 5126,
      "count": 540,
      "type": "VEC3"
    },
    {
      "bufferView": 28,
      "componentType": 5126,
      "count": 540,
      "type": "VEC4"
    },
    {
      "bufferView": 29,
      "componentType": 5126,
      "count": 540,
      "type": "VEC2"
    },
    {
      "bufferView": 30,
      "componentType": 5125,
      "count": 12663,
      "type": "SCALAR"
    },
    {
      "bufferView": 31,
      "componentType": 5126,
      "count": 4401,
      "max": [
        5.50804042816162,
        6.45298099517822,
        -0.00260335206985474
      ],
      "min": [
        0.546529531478882,
        3.43063068389893,
        -0.158601582050323
      ],
      "type": "VEC3"
    },
    {
      "bufferView": 32,
      "componentType": 5126,
      "count": 4401,
      "type": "VEC3"
    },
    {
      "bufferView": 33,
      "componentType": 5126,
      "count": 4401,
      "type": "VEC4"
    },
    {
      "bufferView": 34,
      "componentType": 5126,
      "count": 4401,
      "type": "VEC2"
    },
    {
      "bufferView": 35,
      "componentType": 5125,
      "count": 45915,
      "type": "SCALAR"
    },
    {
      "bufferView": 36,
      "componentType": 5126,
      "count": 18019,
      "max": [
        5.91109180450439,
        0.547831773757935,
        0.214679911732674
      ],
      "min": [
        0.201297760009766,
        -1.02956390380859,
        -0.213681697845459
      ],
      "type": "VEC3"
    },
    {
      "bufferView": 37,
      "componentType": 5126,
      "count": 18019,
      "type": "VEC3"
    },
    {
      "bufferView": 38,
      "componentType": 5126,
      "count": 18019,
      "type": "VEC4"
    },
    {
      "bufferView": 39,
      "componentType": 5126,
      "count": 18019,
      "type": "VEC2"
    },
    {
      "bufferView": 40,
      "componentType": 5125,
      "count": 259434,
      "type": "SCALAR"
    },
    {
      "bufferView": 41,
      "componentType": 5126,
      "count": 90222,
      "max": [
        5.91174411773682,
        0.550130844116211,
        0.215281963348389
      ],
      "min": [
        0.139950275421143,
        -0.98423957824707,
        -0.214339882135391
      ],
      "type": "VEC3"
    },
    {
      "bufferView": 42,
      "componentType": 5126,
      "count": 90222,
      "type": "VEC3"
    },
    {
      "bufferView": 43,
      "componentType": 5126,
      "count": 90222,
      "type": "VEC4"
    },
    {
      "bufferView": 44,
      "componentType": 5126,
      "count": 90222,
      "type": "VEC2"
    }
  ],
  "asset": {
    "generator": "Adobe Substance 3D Painter 8.3.0",
    "version": "2.0"
  },
  "bufferViews": [
    {
      "buffer": 0,
      "byteLength": 3216,
      "target": 34963
    },
    {
      "buffer": 0,
      "byteLength": 3840,
      "byteOffset": 3216,
      "target": 34962
    },
    {
      "buffer": 0,
      "byteLength": 3840,
      "byteOffset": 7056,
      "target": 34962
    },
    {
      "buffer": 0,
      "byteLength": 5120,
      "byteOffset": 10896,
      "target": 34962
    },
    {
      "buffer": 0,
      "byteLength": 2560,
      "byteOffset": 16016,
      "target": 34962
    },
    {
      "buffer": 0,
      "byteLength": 3216,
      "byteOffset": 18576,
      "target": 34963
    },
    {
      "buffer": 0,
      "byteLength": 5196,
      "byteOffset": 21792,
      "target": 34962
    },
    {
      "buffer": 0,
      "byteLength": 5196,
      "byteOffset": 26988,
      "target": 34962
    },
    {
      "buffer": 0,
      "byteLength": 6928,
      "byteOffset": 32184,
      "target": 34962
    },
    {
      "buffer": 0,
      "byteLength": 3464,
      "byteOffset": 39112,
      "target": 34962
    },
    {
      "buffer": 0,
      "byteLength": 4944,
      "byteOffset": 42576,
      "target": 34963
    },
    {
      "buffer": 0,
      "byteLength": 3744,
      "byteOffset": 47520,
      "target": 34962
    },
    {
      "buffer": 0,
      "byteLength": 3744,
      "byteOffset": 51264,
      "target": 34962
    },
    {
      "buffer": 0,
      "byteLength": 4992,
      "byteOffset": 55008,
      "target": 34962
    },
    {
      "buffer": 0,
      "byteLength": 2496,
      "byteOffset": 60000,
      "target": 34962
    },
    {
      "buffer": 0,
      "byteLength": 15192,
      "byteOffset": 62496,
      "target": 34963
    },
    {
      "buffer": 0,
      "byteLength": 12624,
      "byteOffset": 77688,
      "target": 34962
    },
    {
      "buffer": 0,
      "byteLength": 12624,
      "byteOffset": 90312,
      "target": 34962
    },
    {
      "buffer": 0,
      "byteLength": 16832,
      "byteOffset": 102936,
      "target": 34962
    },
    {
      "buffer": 0,
      "byteLength": 8416,
      "byteOffset": 119768,
      "target": 34962
    },
    {
      "buffer": 0,
      "byteLength": 6456,
      "byteOffset": 128184,
      "target": 34963
    },
    {
      "buffer": 0,
      "byteLength": 3600,
      "byteOffset": 134640,
      "target": 34962
    },
    {
      "buffer": 0,
      "byteLength": 3600,
      "byteOffset": 138240,
      "target": 34962
    },
    {
      "buffer": 0,
      "byteLength": 4800,
      "byteOffset": 141840,
      "target": 34962
    },
    {
      "buffer": 0,
      "byteLength": 2400,
      "byteOffset": 146640,
      "target": 34962
    },
    {
      "buffer": 0,
      "byteLength": 8640,
      "byteOffset": 149040,
      "target": 34963
    },
    {
      "buffer": 0,
      "byteLength": 6480,
      "byteOffset": 157680,
      "target": 34962
    },
    {
      "buffer": 0,
      "byteLength": 6480,
      "byteOffset": 164160,
      "target": 34962
    },
    {
      "buffer": 0,
      "byteLength": 8640,
      "byteOffset": 170640,
      "target": 34962
    },
    {
      "buffer": 0,
      "byteLength": 4320,
      "byteOffset": 179280,
      "target": 34962
    },
    {
      "buffer": 0,
      "byteLength": 50652,
      "byteOffset": 183600,
      "target": 34963
    },
    {
      "buffer": 0,
      "byteLength": 52812,
      "byteOffset": 234252,
      "target": 34962
    },
    {
      "buffer": 0,
      "byteLength": 52812,
      "byteOffset": 287064,
      "target": 34962
    },
    {
      "buffer": 0,
      "byteLength": 70416,
      "byteOffset": 339876,
      "target": 34962
    },
    {
      "buffer": 0,
      "byteLength": 35208,
      "byteOffset": 410292,
      "target": 34962
    },
    {
      "buffer": 0,
      "byteLength": 183660,
      "byteOffset": 445500,
      "target": 34963
    },
    {
      "buffer": 0,
      "byteLength": 216228,
      "byteOffset": 629160,
      "target": 34962
    },
    {
      "buffer": 0,
      "byteLength": 216228,
      "byteOffset": 845388,
      "target": 34962
    },
    {
      "buffer": 0,
      "byteLength": 288304,
      "byteOffset": 1061616,
      "target": 34962
    },
    {
      "buffer": 0,
      "byteLength": 144152,
      "byteOffset": 1349920,
      "target": 34962
    },
    {
      "buffer": 0,
      "byteLength": 1037736,
      "byteOffset": 1494072,
      "target": 34963
    },
    {
      "buffer": 0,
      "byteLength": 1082664,
      "byteOffset": 2531808,
      "target": 34962
    },
    {
      "buffer": 0,
      "byteLength": 1082664,
      "byteOffset": 3614472,
      "target": 34962
    },
    {
      "buffer": 0,
      "byteLength": 1443552,
      "byteOffset": 4697136,
      "target": 34962
    },
    {
      "buffer": 0,
      "byteLength": 721776,
      "byteOffset": 6140688,
      "target": 34962
    }
  ],
  "buffers": [
    {
      "byteLength": 6862464,
      "uri": "nft_2.bin"
    }
  ],
  "images": [
    {
      "uri": "gold_board_s_baseColor.png"
    },
    {
      "uri": "gold_board_s_occlusionRoughnessMetallic.png"
    },
    {
      "uri": "gold_board_s_normal.png"
    },
    {
      "uri": "love_logo_s_baseColor.png"
    },
    {
      "uri": "love_logo_s_occlusionRoughnessMetallic.png"
    },
    {
      "uri": "love_logo_s_normal.png"
    },
    {
      "uri": "nft_frame_s_baseColor.png"
    },
    {
      "uri": "nft_frame_s_occlusionRoughnessMetallic.png"
    },
    {
      "uri": "nft_frame_s_normal.png"
    },
    {
      "uri": "photo_frame_s_baseColor.png"
    },
    {
      "uri": "photo_frame_s_occlusionRoughnessMetallic.png"
    },
    {
      "uri": "photo_frame_s_normal.png"
    },
    {
      "uri": "photo_s_baseColor.png"
    },
    {
      "uri": "photo_s_occlusionRoughnessMetallic.png"
    },
    {
      "uri": "photo_s_normal.png"
    },
    {
      "uri": "qr_s_baseColor.png"
    },
    {
      "uri": "qr_s_occlusionRoughnessMetallic.png"
    },
    {
      "uri": "qr_s_normal.png"
    },
    {
      "uri": "text_s_baseColor.png"
    },
    {
      "uri": "text_s_occlusionRoughnessMetallic.png"
    },
    {
      "uri": "text_s_normal.png"
    },
    {
      "uri": "video_back_s_baseColor.png"
    },
    {
      "uri": "video_back_s_occlusionRoughnessMetallic.png"
    },
    {
      "uri": "video_back_s_normal.png"
    },
    {
      "uri": "video_front_s_baseColor.png"
    },
    {
      "uri": "video_front_s_occlusionRoughnessMetallic.png"
    },
    {
      "uri": "video_front_s_normal.png"
    }
  ],
  "materials": [
    {
      "alphaMode": "OPAQUE",
      "name": "gold_board_s",
      "normalTexture": {
        "index": 2
      },
      "occlusionTexture": {
        "index": 1
      },
      "pbrMetallicRoughness": {
        "baseColorTexture": {
          "index": 0
        },
        "metallicRoughnessTexture": {
          "index": 1
        }
      }
    },
    {
      "alphaMode": "OPAQUE",
      "name": "love_logo_s",
      "normalTexture": {
        "index": 5
      },
      "occlusionTexture": {
        "index": 4
      },
      "pbrMetallicRoughness": {
        "baseColorTexture": {
          "index": 3
        },
        "metallicRoughnessTexture": {
          "index": 4
        }
      }
    },
    {
      "alphaMode": "OPAQUE",
      "name": "nft_frame_s",
      "normalTexture": {
        "index": 8
      },
      "occlusionTexture": {
        "index": 7
      },
      "pbrMetallicRoughness": {
        "baseColorTexture": {
          "index": 6
        },
        "metallicRoughnessTexture": {
          "index": 7
        }
      }
    },
    {
      "alphaMode": "OPAQUE",
      "name": "photo_frame_s",
      "normalTexture": {
        "index": 11
      },
      "occlusionTexture": {
        "index": 10
      },
      "pbrMetallicRoughness": {
        "baseColorTexture": {
          "index": 9
        },
        "metallicRoughnessTexture": {
          "index": 10
        }
      }
    },
    {
      "alphaMode": "OPAQUE",
      "name": "photo_s",
      "normalTexture": {
        "index": 14
      },
      "occlusionTexture": {
        "index": 13
      },
      "pbrMetallicRoughness": {
        "baseColorTexture": {
          "index": 12
        },
        "metallicRoughnessTexture": {
          "index": 13
        }
      }
    },
    {
      "alphaMode": "OPAQUE",
      "name": "qr_s",
      "normalTexture": {
        "index": 17
      },
      "occlusionTexture": {
        "index": 16
      },
      "pbrMetallicRoughness": {
        "baseColorTexture": {
          "index": 15
        },
        "metallicRoughnessTexture": {
          "index": 16
        }
      }
    },
    {
      "alphaMode": "OPAQUE",
      "name": "text_s",
      "normalTexture": {
        "index": 20
      },
      "occlusionTexture": {
        "index": 19
      },
      "pbrMetallicRoughness": {
        "baseColorTexture": {
          "index": 18
        },
        "metallicRoughnessTexture": {
          "index": 19
        }
      }
    },
    {
      "alphaMode": "OPAQUE",
      "name": "video_back_s",
      "normalTexture": {
        "index": 23
      },
      "occlusionTexture": {
        "index": 22
      },
      "pbrMetallicRoughness": {
        "baseColorTexture": {
          "index": 21
        },
        "metallicRoughnessTexture": {
          "index": 22
        }
      }
    },
    {
      "alphaMode": "OPAQUE",
      "name": "video_front_s",
      "normalTexture": {
        "index": 26
      },
      "occlusionTexture": {
        "index": 25
      },
      "pbrMetallicRoughness": {
        "baseColorTexture": {
          "index": 24
        },
        "metallicRoughnessTexture": {
          "index": 25
        }
      }
    }
  ],
  "meshes": [
    {
      "name": "video_back",
      "primitives": [
        {
          "attributes": {
            "NORMAL": 2,
            "POSITION": 1,
            "TANGENT": 3,
            "TEXCOORD_0": 4
          },
          "indices": 0,
          "material": 7,
          "mode": 4
        }
      ]
    },
    {
      "name": "video_front",
      "primitives": [
        {
          "attributes": {
            "NORMAL": 7,
            "POSITION": 6,
            "TANGENT": 8,
            "TEXCOORD_0": 9
          },
          "indices": 5,
          "material": 8,
          "mode": 4
        }
      ]
    },
    {
      "name": "gold_board",
      "primitives": [
        {
          "attributes": {
            "NORMAL": 12,
            "POSITION": 11,
            "TANGENT": 13,
            "TEXCOORD_0": 14
          },
          "indices": 10,
          "material": 0,
          "mode": 4
        }
      ]
    },
    {
      "name": "nft_frame",
      "primitives": [
        {
          "attributes": {
            "NORMAL": 17,
            "POSITION": 16,
            "TANGENT": 18,
            "TEXCOORD_0": 19
          },
          "indices": 15,
          "material": 2,
          "mode": 4
        }
      ]
    },
    {
      "name": "photo",
      "primitives": [
        {
          "attributes": {
            "NORMAL": 22,
            "POSITION": 21,
            "TANGENT": 23,
            "TEXCOORD_0": 24
          },
          "indices": 20,
          "material": 4,
          "mode": 4
        }
      ]
    },
    {
      "name": "photo_frame",
      "primitives": [
        {
          "attributes": {
            "NORMAL": 27,
            "POSITION": 26,
            "TANGENT": 28,
            "TEXCOORD_0": 29
          },
          "indices": 25,
          "material": 3,
          "mode": 4
        }
      ]
    },
    {
      "name": "love_logo",
      "primitives": [
        {
          "attributes": {
            "NORMAL": 32,
            "POSITION": 31,
            "TANGENT": 33,
            "TEXCOORD_0": 34
          },
          "indices": 30,
          "material": 1,
          "mode": 4
        }
      ]
    },
    {
      "name": "text",
      "primitives": [
        {
          "attributes": {
            "NORMAL": 37,
            "POSITION": 36,
            "TANGENT": 38,
            "TEXCOORD_0": 39
          },
          "indices": 35,
          "material": 6,
          "mode": 4
        }
      ]
    },
    {
      "name": "qr",
      "primitives": [
        {
          "attributes": {
            "NORMAL": 42,
            "POSITION": 41,
            "TANGENT": 43,
            "TEXCOORD_0": 44
          },
          "indices": 40,
          "material": 5,
          "mode": 4
        }
      ]
    }
  ],
  "nodes": [
    {
      "children": [
        1,
        3,
        5,
        7,
        9,
        11,
        13,
        15,
        17
      ],
      "name": "RootNode"
    },
    {
      "children": [
        2
      ],
      "name": "video_back"
    },
    {
      "mesh": 0,
      "name": "video_back"
    },
    {
      "children": [
        4
      ],
      "name": "video_front"
    },
    {
      "mesh": 1,
      "name": "video_front"
    },
    {
      "children": [
        6
      ],
      "name": "gold_board"
    },
    {
      "mesh": 2,
      "name": "gold_board"
    },
    {
      "children": [
        8
      ],
      "name": "nft_frame"
    },
    {
      "mesh": 3,
      "name": "nft_frame"
    },
    {
      "children": [
        10
      ],
      "name": "photo"
    },
    {
      "mesh": 4,
      "name": "photo"
    },
    {
      "children": [
        12
      ],
      "name": "photo_frame"
    },
    {
      "mesh": 5,
      "name": "photo_frame"
    },
    {
      "children": [
        14
      ],
      "name": "love_logo"
    },
    {
      "mesh": 6,
      "name": "love_logo"
    },
    {
      "children": [
        16
      ],
      "name": "text"
    },
    {
      "mesh": 7,
      "name": "text"
    },
    {
      "children": [
        18
      ],
      "name": "qr"
    },
    {
      "mesh": 8,
      "name": "qr"
    }
  ],
  "samplers": [
    {
      "magFilter": 9729,
      "minFilter": 9985,
      "wrapS": 10497,
      "wrapT": 10497
    }
  ],
  "scene": 0,
  "scenes": [
    {
      "name": "Scene",
      "nodes": [
        0
      ]
    }
  ],
  "textures": [
    {
      "sampler": 0,
      "source": 0
    },
    {
      "sampler": 0,
      "source": 1
    },
    {
      "sampler": 0,
      "source": 2
    },
    {
      "sampler": 0,
      "source": 3
    },
    {
      "sampler": 0,
      "source": 4
    },
    {
      "sampler": 0,
      "source": 5
    },
    {
      "sampler": 0,
      "source": 6
    },
    {
      "sampler": 0,
      "source": 7
    },
    {
      "sampler": 0,
      "source": 8
    },
    {
      "sampler": 0,
      "source": 9
    },
    {
      "sampler": 0,
      "source": 10
    },
    {
      "sampler": 0,
      "source": 11
    },
    {
      "sampler": 0,
      "source": 12
    },
    {
      "sampler": 0,
      "source": 13
    },
    {
      "sampler": 0,
      "source": 14
    },
    {
      "sampler": 0,
      "source": 15
    },
    {
      "sampler": 0,
      "source": 16
    },
    {
      "sampler": 0,
      "source": 17
    },
    {
      "sampler": 0,
      "source": 18
    },
    {
      "sampler": 0,
      "source": 19
    },
    {
      "sampler": 0,
      "source": 20
    },
    {
      "sampler": 0,
      "source": 21
    },
    {
      "sampler": 0,
      "source": 22
    },
    {
      "sampler": 0,
      "source": 23
    },
    {
      "sampler": 0,
      "source": 24
    },
    {
      "sampler": 0,
      "source": 25
    },
    {
      "sampler": 0,
      "source": 26
    }
  ]
}