<?xml version="1.0" standalone="no"?>
<!DOCTYPE svg PUBLIC "-//W3C//DTD SVG 20010904//EN"
 "http://www.w3.org/TR/2001/REC-SVG-20010904/DTD/svg10.dtd">
<svg version="1.0" xmlns="http://www.w3.org/2000/svg"
 width="471.000000pt" height="471.000000pt" viewBox="0 0 471.000000 471.000000"
 preserveAspectRatio="xMidYMid meet">

<g transform="translate(0.000000,471.000000) scale(0.100000,-0.100000)"
fill="#000000" stroke="none">
<path d="M1140 4630 l0 -80 140 0 140 0 0 -59 c0 -38 -4 -60 -12 -63 -7 -2
-70 -3 -140 -2 l-128 1 0 -78 0 -78 68 -3 67 -3 3 -67 3 -67 67 -3 67 -3 3
-202 2 -203 -59 0 -60 0 -3 68 -3 67 -77 3 -78 3 0 -81 0 -80 70 0 70 0 0 -70
0 -70 70 0 70 0 0 -65 0 -65 -140 0 -140 0 0 -70 0 -70 -135 0 -136 0 3 63 3
62 68 3 67 3 0 74 0 75 -80 0 -80 0 0 -70 0 -70 -210 0 -210 0 0 -80 0 -80
210 0 210 0 0 -70 0 -69 73 -3 72 -3 3 -57 3 -58 -69 0 c-79 0 -82 -3 -82 -80
0 -85 -14 -80 221 -80 l209 0 0 -65 0 -65 -70 0 -70 0 0 -70 0 -70 -65 0 -65
0 0 70 0 70 -75 0 -75 0 0 -80 0 -79 68 -3 67 -3 3 -57 3 -57 -73 -3 -73 -3
-3 -67 -3 -68 -59 0 -59 0 -3 68 -3 67 -75 0 -75 0 -3 -77 -3 -78 71 0 70 0 0
-135 0 -135 -60 0 -60 0 0 70 0 70 -80 0 -80 0 0 -70 0 -70 -145 0 -145 0 0
-70 0 -70 -70 0 -70 0 0 -365 0 -365 570 0 570 0 0 -70 0 -70 150 0 149 0 3
142 3 143 68 3 67 3 0 70 0 70 133 -3 132 -3 3 -132 3 -133 -71 0 -70 0 0
-150 0 -150 140 0 141 0 -3 -62 -3 -63 -200 0 -200 0 -3 67 -3 68 -79 0 -80 0
0 -145 0 -144 143 -3 142 -3 3 -132 3 -133 -136 0 -135 0 0 70 0 70 -80 0 -80
0 0 -220 0 -220 150 0 150 0 0 70 0 70 65 0 65 0 0 -70 0 -70 290 0 290 0 0
80 0 80 -70 0 -70 0 0 60 0 60 205 0 205 0 0 -140 0 -140 150 0 150 0 0 70 0
70 70 0 70 0 0 140 0 140 65 0 65 0 0 -210 0 -210 220 0 220 0 0 70 0 70 60 0
60 0 0 -70 0 -70 80 0 80 0 0 150 0 150 -150 0 -150 0 0 -70 0 -70 -135 0
-135 0 0 210 0 210 -70 0 -70 0 0 70 0 70 -80 0 -80 0 0 -70 0 -70 -140 0
-140 0 0 -140 0 -140 -65 0 -65 0 0 70 0 70 -70 0 -71 0 3 63 3 62 68 3 67 3
0 209 0 210 65 0 65 0 0 -140 0 -140 80 0 80 0 0 70 0 70 140 0 140 0 0 70 0
70 65 0 65 0 0 -70 0 -70 74 0 73 0 6 -58 c6 -75 37 -135 88 -172 l41 -29 2
-83 1 -83 77 -3 77 -3 3 78 3 78 60 0 60 0 3 -77 3 -78 69 0 70 0 0 -70 0 -70
80 0 80 0 0 145 0 145 70 0 69 0 3 68 3 67 58 3 57 3 0 -136 0 -135 -70 0 -70
0 0 -220 0 -220 150 0 150 0 0 80 0 80 -70 0 -70 0 0 60 0 60 140 0 140 0 0
80 0 80 -70 0 -71 0 3 63 3 62 68 3 67 3 0 74 0 74 -67 3 -68 3 -3 133 -3 132
71 0 70 0 0 220 0 219 -67 3 -68 3 -3 68 -3 67 -42 2 c-23 0 -46 2 -52 3 -5 2
-18 3 -27 4 -15 1 -18 11 -18 61 l0 60 70 0 69 0 3 143 3 142 68 3 67 3 0 289
0 290 -70 0 -71 0 3 63 3 62 68 3 67 3 0 144 0 144 -67 3 -68 3 -3 203 -2 202
70 0 70 0 0 80 0 80 -75 0 -74 0 -3 -67 -3 -68 -62 -3 -63 -3 0 71 0 70 -80 0
-80 0 0 -70 0 -70 -60 0 -60 0 0 70 0 70 -80 0 -80 0 0 -70 0 -70 -65 0 -65 0
0 70 0 70 -80 0 -80 0 0 -70 0 -70 -202 2 -203 3 -2 135 c-1 74 -2 170 -3 213
l0 77 -75 0 -75 0 0 -215 0 -215 -75 0 -75 0 0 -70 0 -70 -60 0 -60 0 0 70 0
70 -140 0 -140 0 0 65 0 65 140 0 140 0 0 70 0 70 70 0 70 0 0 80 0 81 -77 -3
-78 -3 -3 -67 -3 -68 -59 0 -59 0 -3 68 -3 67 -77 3 -78 3 0 -70 c0 -74 -5
-81 -58 -81 -67 0 -72 6 -72 81 l0 69 -70 0 -70 0 0 70 0 70 -140 0 -141 0 3
63 3 62 55 1 c30 1 92 2 138 3 l82 1 0 145 0 145 -80 0 -80 0 0 -70 0 -70
-202 2 -203 3 0 60 0 60 68 3 67 3 0 150 0 150 -147 -3 -148 -3 -3 -67 -3 -68
-59 0 -60 0 0 70 0 70 -150 0 -150 0 0 -80z m565 -402 c3 -24 5 -83 3 -133
l-3 -90 -62 -3 -63 -3 0 136 0 135 59 0 60 0 6 -42z m-1 -404 c10 -27 7 -79
-7 -98 -10 -13 -24 -17 -62 -14 l-50 3 -3 63 -3 62 59 0 c45 0 61 -4 66 -16z
m286 -54 l0 -70 70 0 70 0 0 -70 0 -70 80 0 80 0 0 70 0 70 60 0 60 0 0 -135
0 -135 -70 0 -70 0 0 -140 0 -140 -70 0 -70 0 0 -75 0 -75 -140 0 -139 0 -3
-67 -3 -68 -202 -3 -203 -2 0 65 0 65 140 0 140 0 2 283 3 282 60 0 60 0 3
-142 3 -143 149 0 150 0 0 80 0 80 -70 0 -70 0 0 70 0 69 -72 3 -73 3 -3 133
-3 132 66 0 65 0 0 -70z m280 10 l0 -60 -60 0 -60 0 0 60 0 60 60 0 60 0 0
-60z m-710 -430 l0 -60 -60 0 -60 0 0 60 0 60 60 0 60 0 0 -60z m1000 -10 l0
-70 140 0 140 0 0 -60 0 -60 -205 0 -205 0 0 130 0 130 65 0 65 0 0 -70z m710
10 l0 -60 -65 0 -65 0 0 60 0 60 65 0 65 0 0 -60z m569 -70 l0 -130 -144 0
-145 0 0 -75 0 -75 -140 0 -140 0 0 -140 0 -140 -65 0 -65 0 0 205 0 205 70 0
70 0 0 70 0 70 215 0 215 0 0 70 0 70 64 0 64 0 1 -130z m561 0 l0 -130 -60 0
-60 0 0 130 0 130 60 0 60 0 0 -130z m-2980 -70 l0 -60 -70 0 -70 0 0 -70 c0
-65 -2 -70 -23 -76 -13 -3 -41 -4 -63 -2 l-39 3 -3 133 -3 132 136 0 135 0 0
-60z m1700 0 l0 -60 -60 0 -60 0 0 60 0 60 60 0 60 0 0 -60z m1000 -10 l0 -70
70 0 70 0 0 -70 0 -70 70 0 70 0 0 -70 0 -70 70 0 70 0 0 -65 0 -65 -140 0
-140 0 0 -70 0 -70 -60 0 -60 0 0 210 0 209 -72 3 -73 3 -3 119 c-1 66 0 126
2 133 4 9 25 13 66 13 l60 0 0 -70z m-1850 -220 c0 -6 38 -10 94 -10 225 0
431 -126 535 -327 38 -76 45 -83 72 -83 l29 0 0 70 0 70 65 0 65 0 0 -70 0
-70 75 0 75 0 0 70 0 69 73 3 72 3 3 67 c3 67 3 67 35 73 18 3 75 5 127 3 l95
-3 5 -70 5 -70 73 -3 72 -3 0 -139 0 -140 70 0 70 0 0 -70 0 -70 150 0 150 0
0 70 0 70 60 0 60 0 0 -135 0 -135 -272 2 -273 3 -3 67 -3 67 -67 3 -67 3 -3
143 -3 142 -79 0 -79 0 -3 -142 -3 -143 -57 -3 -57 -3 -3 73 -3 73 -77 3 -78
3 0 -216 0 -215 -70 0 -70 0 0 -140 0 -140 -65 0 -65 0 0 70 0 70 -138 0 c-94
0 -142 -4 -150 -12 -7 -7 -12 -38 -12 -70 l0 -59 -62 3 c-56 3 -63 6 -66 24
-3 21 -4 21 -50 7 -26 -8 -93 -17 -149 -20 -76 -4 -103 -9 -103 -19 0 -9 21
-14 73 -16 l72 -3 0 -60 0 -60 -72 -3 -73 -3 0 -74 0 -74 143 -3 142 -3 3
-132 3 -133 -66 0 -65 0 0 70 0 70 -80 0 -80 0 0 -209 0 -209 -95 -7 c-52 -4
-110 -4 -129 -1 l-35 7 -3 67 -3 67 -72 3 -73 3 0 59 0 60 145 0 145 0 0 150
0 149 -142 3 -143 3 -5 280 c-3 154 -7 281 -8 283 -1 1 -31 2 -67 2 l-66 0 3
63 c3 56 5 62 26 65 19 3 23 8 18 25 -4 12 -11 45 -17 72 -6 28 -15 54 -20 60
-5 5 -9 40 -9 77 l0 69 -77 -3 -78 -3 -3 -142 -3 -143 -70 0 -70 0 3 -77 3
-78 68 -3 67 -3 0 -59 0 -60 -70 0 -70 0 0 -70 0 -70 -205 0 -205 0 0 60 0 60
70 0 70 0 0 70 0 70 69 0 c54 0 70 4 75 16 3 9 6 74 6 145 l0 129 70 0 70 0 0
140 0 140 70 0 70 0 0 70 0 70 65 0 65 0 0 -70 0 -70 28 0 c26 0 33 8 67 78
52 105 160 213 267 268 62 31 78 44 78 62 0 20 4 22 60 22 33 0 60 -4 60 -10z
m710 -125 l0 -135 -60 0 -60 0 0 135 0 135 60 0 60 0 0 -135z m-1700 -355 l0
-61 -62 3 -63 3 -3 44 c-5 66 -1 71 68 71 l60 0 0 -60z m2840 0 l0 -60 -65 0
-65 0 0 60 0 60 65 0 65 0 0 -60z m426 -2 l1 -58 -63 0 -64 0 0 60 0 61 63 -3
62 -3 1 -57z m-3406 -283 l0 -205 -65 0 -65 0 0 70 0 70 -70 0 -70 0 0 65 0
65 70 0 70 0 0 70 0 70 65 0 65 0 0 -205z m2550 0 l0 -65 -60 0 -60 0 0 65 0
65 60 0 60 0 0 -65z m-142 -142 l3 -63 -61 0 -60 0 0 65 0 66 58 -3 57 -3 3
-62z m992 2 l0 -65 -60 0 -60 0 0 65 0 65 60 0 60 0 0 -65z m-3970 -155 l0
-70 140 0 140 0 0 -70 0 -70 69 0 c69 0 69 0 76 -31 4 -17 4 -46 1 -65 l-7
-34 -69 0 -70 0 0 -75 0 -74 143 -3 142 -3 3 -63 3 -62 -348 2 -348 3 0 60 0
60 67 3 66 3 4 52 c1 29 2 96 0 149 l-3 97 -67 3 -67 3 -3 128 -3 127 66 0 65
0 0 -70z m3410 10 l0 -60 -70 0 -70 0 0 -70 0 -70 -135 0 -135 0 0 60 0 60 70
0 70 0 0 70 0 70 135 0 135 0 0 -60z m-3692 -142 l3 -58 -66 0 -65 0 0 60 0
61 63 -3 62 -3 3 -57z m3122 -8 l0 -70 70 0 70 0 0 -65 0 -65 -140 0 -139 0
-3 -67 -3 -68 -60 0 -60 0 -3 133 -3 132 71 0 70 0 0 70 0 70 65 0 65 0 0 -70z
m990 10 l0 -60 -60 0 -60 0 0 60 0 60 60 0 60 0 0 -60z m-1420 -220 l0 -140
70 0 70 0 0 -205 0 -205 -130 0 -130 0 0 70 0 70 -70 0 -71 0 3 61 3 62 65 1
65 1 3 77 3 77 -143 3 -143 3 0 60 0 60 68 3 67 3 0 63 c0 34 3 66 7 69 3 4
64 7 135 7 l128 0 0 -140z m1280 70 l0 -70 70 0 70 0 0 -65 0 -65 -130 0 -130
0 0 135 0 135 60 0 60 0 0 -70z m-3832 -132 l-3 -63 -67 -3 -67 -3 -3 -67 -3
-67 -62 -3 -63 -3 0 136 0 135 135 0 136 0 -3 -62z m852 -3 l0 -66 -62 3 -63
3 -3 49 c-5 72 -1 76 68 76 l60 0 0 -65z m280 0 l0 -65 -60 0 -60 0 0 65 0 65
60 0 60 0 0 -65z m2420 -5 l0 -69 68 -3 67 -3 2 -140 c2 -113 0 -136 -10 -120
-26 43 -95 101 -134 113 -25 7 -105 12 -209 12 -158 0 -172 -2 -222 -25 -39
-18 -59 -36 -80 -69 -16 -27 -32 -44 -40 -41 -8 3 -43 5 -78 5 l-64 0 0 60 0
59 73 3 72 3 3 73 3 72 69 0 70 0 0 70 0 70 205 0 205 0 0 -70z m560 -135 l0
-65 -60 0 -60 0 0 65 0 65 60 0 60 0 0 -65z m-152 -85 c8 0 12 -19 12 -60 l0
-60 -60 0 -60 0 0 59 c0 57 1 60 28 64 15 2 36 3 47 1 11 -2 26 -4 33 -4z
m-413 -112 c46 -36 55 -73 55 -233 0 -179 -9 -207 -75 -236 -41 -18 -63 -20
-200 -17 -137 3 -157 5 -182 24 -48 36 -53 56 -53 232 0 249 2 251 256 252
161 0 173 -1 199 -22z m285 -88 l0 -60 -64 0 c-72 0 -76 4 -76 76 l0 44 70 0
70 0 0 -60z m140 -140 l0 -60 -60 0 -60 0 0 60 0 60 60 0 60 0 0 -60z m-140
-145 l0 -65 -70 0 -70 0 0 58 c0 32 3 62 7 65 3 4 35 7 70 7 l63 0 0 -65z
m-1845 -140 l0 -60 -62 -3 -63 -3 0 66 0 66 63 -3 62 -3 0 -60z m1705 0 l0
-65 -64 0 -64 0 61 64 c34 35 63 64 65 65 1 0 2 -28 2 -64z m-2270 -425 l0
-60 -65 0 -65 0 0 60 0 60 65 0 65 0 0 -60z"/>
<path d="M2323 2781 c-61 -28 -96 -86 -101 -168 -4 -65 -4 -65 19 -58 155 45
339 112 339 124 0 26 -52 83 -94 102 -52 24 -110 24 -163 0z"/>
<path d="M2500 2593 c-41 -14 -77 -27 -79 -29 -2 -2 7 -35 18 -75 12 -39 19
-74 16 -78 -4 -3 -34 -15 -68 -27 -34 -11 -62 -25 -62 -30 0 -5 11 -46 24 -91
17 -58 29 -83 40 -83 9 0 59 14 111 32 109 36 154 72 166 132 9 48 -53 270
-76 273 -8 1 -49 -10 -90 -24z"/>
<path d="M2125 2512 c-44 -14 -82 -27 -84 -29 -5 -3 160 -546 169 -556 7 -8
170 81 170 93 -1 25 -158 514 -165 516 -6 1 -46 -10 -90 -24z"/>
<path d="M2964 2263 c-3 -16 -12 -49 -19 -75 l-13 -48 104 0 104 0 0 75 0 75
-85 0 c-84 0 -85 0 -91 -27z"/>
<path d="M1990 1711 l0 -141 80 0 80 0 0 100 0 100 -72 37 c-40 21 -76 39 -80
41 -5 2 -8 -60 -8 -137z"/>
<path d="M3728 1003 c-21 -5 -34 -66 -22 -102 8 -22 16 -26 57 -29 63 -4 77 9
77 69 0 38 -4 51 -19 59 -20 10 -61 12 -93 3z"/>
<path d="M1990 4630 l0 -80 80 0 80 0 0 80 0 80 -80 0 -80 0 0 -80z"/>
<path d="M2277 4703 c-4 -3 -7 -39 -7 -80 l0 -73 80 0 80 0 0 80 0 80 -73 0
c-41 0 -77 -3 -80 -7z"/>
<path d="M2560 4630 l0 -80 70 0 70 0 0 -70 0 -70 70 0 70 0 0 -65 0 -65 -70
0 -70 0 0 -70 0 -70 -70 0 -70 0 0 -80 0 -80 150 0 150 0 0 70 0 70 275 0 275
0 0 -70 0 -70 80 0 80 0 0 80 0 80 -70 0 -70 0 0 65 0 65 70 0 70 0 -2 218 -3
217 -77 3 -78 3 0 -140 c0 -158 4 -151 -85 -148 l-40 2 -3 143 -3 142 -359 0
-360 0 0 -80z m565 -144 l0 -58 -132 -4 -133 -4 0 65 0 66 133 -3 132 -3 0
-59z"/>
<path d="M251 4690 c-89 -19 -166 -83 -214 -180 -21 -43 -22 -57 -22 -300 0
-227 2 -260 19 -304 24 -63 86 -130 151 -164 l50 -27 270 0 c255 0 273 1 317
22 57 26 119 89 150 151 22 46 23 55 23 317 l0 270 -27 51 c-32 60 -93 118
-157 148 -42 19 -64 21 -281 23 -129 1 -255 -2 -279 -7z m491 -140 c45 -13
105 -77 113 -122 3 -18 5 -132 3 -253 -3 -212 -4 -221 -26 -253 -48 -66 -74
-72 -328 -72 -215 0 -228 1 -266 22 -21 12 -49 38 -61 58 -21 33 -22 49 -25
254 -4 238 3 279 52 325 46 43 88 50 301 51 110 0 216 -5 237 -10z"/>
<path d="M334 4376 l-34 -34 0 -131 c0 -201 12 -214 195 -219 195 -5 225 24
225 211 0 188 -20 207 -221 207 l-131 0 -34 -34z"/>
<path d="M3930 4684 c-98 -27 -155 -78 -202 -180 -22 -47 -23 -60 -23 -299 0
-215 2 -256 18 -293 21 -53 21 -50 -5 -54 -21 -3 -23 -9 -26 -80 l-3 -78 81 0
c80 0 80 0 80 26 0 21 3 25 18 19 95 -39 128 -43 336 -43 189 1 214 3 272 23
67 23 74 23 74 -7 0 -16 9 -18 75 -18 l75 0 0 80 c0 79 0 80 -25 80 l-26 0 18
33 c16 28 18 66 21 290 3 219 1 266 -13 308 -22 66 -99 150 -167 180 -50 23
-65 24 -288 26 -185 2 -247 -1 -290 -13z m547 -156 c71 -47 74 -65 71 -337 -3
-225 -4 -241 -24 -268 -47 -63 -62 -66 -328 -66 -259 0 -266 1 -310 53 -39 47
-46 90 -46 295 0 207 7 251 48 296 48 53 83 59 328 56 220 -2 221 -2 261 -29z"/>
<path d="M4024 4374 l-34 -35 0 -131 c0 -193 14 -210 184 -216 123 -5 171 5
207 44 23 24 24 33 27 157 2 118 1 135 -18 165 -11 18 -32 37 -46 42 -14 6
-84 10 -156 10 l-131 0 -33 -36z"/>
<path d="M2420 4345 l0 -75 75 0 75 0 0 75 0 75 -75 0 -75 0 0 -75z"/>
<path d="M3410 3710 l0 -150 80 0 81 0 -3 148 -3 147 -77 3 -78 3 0 -151z"/>
<path d="M0 3280 l0 -150 150 0 150 0 0 80 0 80 -70 0 -70 0 0 70 0 70 -80 0
-80 0 0 -150z"/>
<path d="M428 3078 l-3 -73 -212 -3 -213 -2 0 -75 0 -75 70 0 70 0 0 -70 0
-70 80 0 79 0 3 68 3 67 60 0 60 0 3 -72 3 -73 69 0 70 0 0 -70 0 -70 80 0 80
0 0 80 0 80 -70 0 -70 0 -2 213 -3 212 -77 3 -77 3 -3 -73z"/>
<path d="M290 2430 l0 -150 75 0 75 0 0 150 0 150 -75 0 -75 0 0 -150z"/>
<path d="M857 1013 c-4 -3 -7 -15 -7 -26 0 -14 -5 -17 -17 -12 -81 31 -142 37
-357 33 l-221 -3 -67 -33 c-75 -37 -110 -72 -147 -152 -26 -55 -26 -56 -26
-310 l0 -255 28 -57 c35 -71 111 -141 177 -163 41 -14 89 -16 307 -13 224 3
262 5 291 21 l32 18 0 -26 c0 -25 1 -25 80 -25 l80 0 0 75 c0 66 -2 75 -18 75
-30 0 -30 7 -7 74 20 58 22 82 22 277 0 214 -3 242 -42 332 -6 14 -2 17 19 17
26 0 26 0 26 80 l0 80 -73 0 c-41 0 -77 -3 -80 -7z m-115 -155 c41 -12 107
-76 109 -106 7 -124 0 -492 -10 -510 -6 -11 -28 -34 -48 -49 l-36 -28 -238 -3
c-222 -3 -240 -2 -277 17 -22 11 -51 37 -63 58 -23 36 -24 47 -27 257 -3 182
-1 226 13 261 19 51 51 82 102 100 50 18 417 20 475 3z"/>
<path d="M334 686 c-37 -37 -37 -39 -34 -230 2 -134 33 -156 212 -156 180 0
208 29 208 216 0 184 -22 204 -220 204 l-132 0 -34 -34z"/>
<path d="M1163 873 c-21 -4 -23 -10 -23 -79 l0 -74 75 0 76 0 -3 78 -3 77 -50
1 c-27 1 -60 0 -72 -3z"/>
</g>
</svg>
