<svg version="1.2" xmlns="http://www.w3.org/2000/svg" viewBox="0 0 580 538" width="580" height="538"><style></style><path fill-rule="evenodd" d="m163.5 0.5c19.7 0.4 30.5 2.1 46.8 7.6 32.1 10.7 59.2 32.3 75.5 60.2l3.9 6.6 5.9-9.6c7.2-11.9 23.2-28.4 34.9-36.1 16.4-10.9 36.8-19.1 57-22.8 13.6-2.6 46.8-2.6 60.2-0.1 40.5 7.6 74.4 27.5 97.8 57.2 11.5 14.7 18.5 27.8 25 47 13.6 40.1 12.4 92.8-3.3 138.5-26.7 78-93.2 156.9-197.2 234.2-23.5 17.5-77.4 53.8-79.8 53.8-1.4 0-27-16.3-47.6-30.3-124-84.2-202.9-175.3-230.9-266.7-12.4-40.6-14.5-72-7.1-108.8 7.2-36.1 22.2-64.3 47-88.2 24.2-23.4 52.7-36.7 90.9-42.4 1.7-0.2 11.1-0.3 21-0.1zm-20.2 10.6c-9.8 1.2-30.4 6.3-37.3 9.3-3.4 1.5-3.2 1.5 7.3 1.6h10.7v11h20v-11c0-6.1-0.3-11-0.7-10.9zm32.7 1.9h-9v9h9zm238.8 1.6c-0.5 0.4-0.8 2.2-0.8 4.1v3.3h22v11h20v-13.9l-3.7-1c-2.1-0.5-6.9-1.4-10.8-2-10.6-1.5-25.9-2.4-26.7-1.5zm-215.4 4.4c-0.1 2.9 0 3 4.7 3 6 0 6.7-2.3 1.4-4.6-5-2-6-1.8-6.1 1.6zm89 66.1h5.5-10.9l-3.7-7.2c-3.6-7.1-3.8-7.3-4.1-4.2l-0.3 3.2h-12.9v-4.4c0-6.7 0.6-7.6 5.2-7.6h3.9l-3.1-4.3c-1.7-2.4-5.8-7-9-10.2l-6-5.9v11.4h-12v-11h-11v-17l-4-2c-2.6-1.3-5.9-2-10-2h-6v9h11v12h-23v-11h-11v-10h-9v30h11v11h10v12h-23v-10h-9v10h-12v-21h-11v-11h-9v20h11v12h-12v-10h-10v9.9l-5.2 0.3-5.3 0.3-0.3 5.2-0.3 5.3h-31.9v9h22v11h9v-11h12v23h-10v20h10v34h-21v9h21v11.9l-5.2 0.3-5.3 0.3 0.1 5.2 0.2 5.3h-10.8v20h11v11h10v23h-10v9h10v22.9l-5.2 0.3-5.3 0.3-0.3 5.2-0.3 5.3h-20.9v10h-12v-33h12v10h20.1l-0.3-9.8-0.3-9.7-15.7 0.4-15.8 0.3v-23.2h10v-10h-10v-44h21v-9h-10.1l0.3-6.3 0.3-6.2 4.8 0.3 4.7 0.3v-10.1h-21v-10h-10v10h-9.9l-0.3 10.7-0.3 10.8h-33l-0.3-11.3-0.3-11.2h12.1v10h9v-30h-9v9.9l-10.2 0.3-10.3 0.3-0.3 10.7-0.3 10.8h-2.9c-2.9 0-3 0.1-3 4.7 0 2.7 0.3 7.2 0.6 10 0.6 4.7 0.9 5.3 3 5.3 2.3 0 2.4 0.4 2.4 6 0 4.7-0.3 6-1.5 6-1.2 0-1.4 0.7-0.9 2.7 1.4 6.3 1.2 6.2 7.2 6.5l5.7 0.3v12l-8.2 1 1.1 4 1.2 4 8.1 0.3 8.2 0.3 0.6 10.4 5.3 0.3 5.2 0.3v11.9h-11v5.5c0 4.2-0.3 5.5-1.5 5.5-1.9 0-1.9 0.3 0.5 5l2 4h19v-11h12v12h-10v20h10v12h-12v-5c0-4.9 0-5-3.1-5-3.8 0-3.8 0.1 3.5 11.3 4.9 7.6 5.8 8.6 8.8 8.9 3.2 0.3 3.3 0.4 3.6 5.3 0.3 4.4 1.2 6.1 8.4 15.7 6.3 8.5 8.5 10.8 10.4 10.8 1.9 0 2.4 0.5 2.4 2.6 0 1.4 0.9 3.9 2.1 5.5 1.6 2.2 2.8 2.9 5.5 2.9 3.2 0 3.4 0.2 3.4 3.6 0 2.6 1 4.7 3.6 8 2 2.4 4 4.4 4.5 4.4 0.5 0 0.9-3.6 0.9-8v-8h12v23h-3.2c-3.2 0-2.8 0.5 11.7 15l15 15h18.5v-10h12v10h20v-10h12v9.9l5.3 0.3 5.2 0.3 0.3 10.7 0.3 10.8h8.9v-11.1l6.3 0.3 6.2 0.3 0.3 5.3 0.3 5.2h20.9v20.9l5.3 0.3 5.2 0.3 0.3 5.3 0.3 5.2h9l-0.3-9.8-0.3-9.7-5.2-0.3-5.3-0.3v-20.8l-5.2-0.3-5.3-0.3v-12l10.9-0.3c12.3-0.3 12.8-0.1 12.4 6.3l-0.3 4 15.3 0.3 15.2 0.3v-11.1h43v-10h12v10h11v13h-21v9h10l0.1 4.2c0.1 2.4 0 8.5-0.1 13.7-0.2 10.4 0 10.6 6 5.8 2.5-1.9 2.9-2.9 2.9-7.5l0.1-5.2h11v-22.1l6.3 0.3 6.2 0.3 0.3 5.2c0.2 3 0.8 5.3 1.4 5.3 0.6 0 2.6-1.1 4.5-2.6 3.2-2.4 3.3-2.7 3.3-10v-7.4h-22v-12h23v10h9v-10h9.8l9.7-0.1 6.8-6.4c6.3-6 6.7-6.6 6.7-10.9v-4.5l4.8-0.3 4.7-0.3 0.3-9.8 0.3-9.7h-10.1v-12h10v-9h-10v-23h21v-20h-21v-5.9c0-5.2 0.2-5.9 2.3-6.5 2.9-0.8 12.2-0.7 17 0 3.7 0.7 3.7 0.7 3.7 5.5v4.9h21v11h11v9.6c0 5.2 0.4 9.3 0.9 9 1.8-1.2 24.1-36.2 24.1-38 0-0.3-3.1-0.6-6.9-0.6h-7l-0.3 5.2-0.3 5.3h-12l-0.3-5.2-0.3-5.3h-20.9v-34h14.8c19.3 0 19.2 0 19.2 6.1v4.9h9.9l0.3 5.2 0.3 5.3h9l0.3-5.2c0.3-5 0.4-5.2 3.5-5.5 3-0.3 3.3-0.7 7.4-11.3 8.1-20.5 10.3-29.5 10.3-41.7 0-9.9 0.2-10.8 1.9-10.8 2.8 0 3.2-2.6 3.8-23.3 0.6-18.4 0.5-18.7-1.5-18.7-1.8 0-2.1 0.7-2.4 5.2l-0.3 5.3h-12l-0.3-11.3-0.3-11.2h11.1v-8.9l-5.2-0.3-5.3-0.3-0.3-5.3-0.3-5.2h-8.9v11h-21v10h-23v-10h-4.4c-2.5 0-4.8 0.5-5.1 1-0.4 0.6-0.3 5.1 0.1 10l0.7 9h20.7v21h9v-10h12v10h11v11.9l-5.2 0.3-5.3 0.3-0.3 10.7-0.3 10.8h-9.9v9h10v12h-12v-10h-9v21h-12v-23h10v-9h-30v20h10v12h-12v-11h-21v-23h10v-9h-10v-66h10v-9h-10v-23h21v-20h-21v-11h-11v-4.9c0-5.3-1.2-6.4-6.4-5.4-2.4 0.5-2.6 1-2.6 5.4v4.9h-12.8l0.2-4.3c0.1-2.3 0.3-7.5 0.4-11.5l0.2-7.2h9.9c5.5 0 10.6 0.3 11.5 0.6 1.2 0.4 1.6 2 1.6 5.5v4.9h9.9l0.3 5.2 0.3 5.3 4.3 0.3 4.2 0.3v-20.1h-10v-11h-42.9l-0.3-5.3-0.3-5.2-5.2-0.3-5.3-0.3v-9.8l-5.2-0.3c-5.2-0.3-5.3-0.4-5.6-3.6-0.3-3.3-1.1-3.6-6.9-2.5-2.2 0.4-2.3 0.9-2.3 8.4v7.9h-12v-6.1c0-5.8-0.1-6-2.2-5.3-6.7 2-6.8 2.1-6.8 6.9v4.5h-18.7l-7.1 5-7.2 5.1v11.9h-6.3c-6.2 0-6.3 0-9.5 4.2l-3.3 4.3 4.5 0.3 4.6 0.3v11.9h-17l-2 4c-1.1 2.1-2 3.6-2 4.2-0.7-0.1-5.5-0.2-6.9-0.2l-1.3 0.1zm1.9-0.1c-0.7 0-0.7 0-0.2 0zm-124.3-60.9h-9v9h9zm304.9 0c-2.8 0-2.9 0.2-2.9 4.5v4.5h9v-3.9c0-2.6-0.5-4.1-1.6-4.5-0.9-0.3-2.9-0.6-4.5-0.6zm-388.9 8.3c-10.3 6.6-11.3 7.4-11.4 9.9-0.1 1.8-0.8 2.4-3.1 2.6-4.3 0.5-7.5 3.8-7.5 7.9 0 3.1-0.2 3.3-3.3 3.3-3.8 0-6.6 2.6-14.1 12.9-4.4 6.1-4.7 6.8-4.4 12l0.3 5.6 5.3 0.3 5.2 0.3v9.9h11v23h-11.1l0.3 4.7 0.3 4.8 5.3 0.3 5.2 0.3v20.9h9v-11h11v-21h12v10h9v-19h-21v-11h-11v-34h11v-21h12v10h9v-20h-5c-4.9 0-5-0.1-5-3 0-3.9-1.1-3.8-9 1.3zm414.2 2.4l-7.2-3.8v14.1h-21v9h32v11h11v11h9v-10.3c0-5.9 0.4-10.7 1.1-11.4 0.7-0.7-0.5-2.2-4.2-5.2-2.8-2.2-5.5-4.1-5.9-4.1-0.4 0-2.3-1.5-4.2-3.3-1.9-1.7-6.7-4.9-10.6-7zm-341.7-0.2l-4.2-0.3-4.3-0.3v10.2l4.3-0.3 4.2-0.3zm311.5-0.5h-4c-4.5 0-5.3 1-4.8 6.1 0.3 3.2 0.5 3.4 4.6 3.7l4.2 0.3zm-343 11h-9v9h9zm38.3 0.2c-4.1-0.3-4.2-0.2-4.8 3.2-0.9 4.7-0.1 5.6 5.1 5.6h4.5l-0.3-4.3c-0.3-4.2-0.3-4.2-4.5-4.5zm-49.3 10.8h-8.9l-0.3 5.2-0.3 5.3-21.6 0.6 0.6 8.4 15.3 0.3 15.2 0.3zm424.5 13.5l-4.4-5-0.1 5.7v5.8h4.5c2.5 0 4.5-0.3 4.5-0.8 0-0.4-2-3-4.5-5.7zm-48.4-2.5h-9.2l0.3 9.7 0.3 9.8h8l0.3-9.8zm42.4 10.5l-4.2-0.3-4.3-0.3v10.2l4.3-0.3 4.2-0.3zm-10.5 10.5h-20v11h-11.1l0.3 4.2 0.3 4.3 19.4 0.6 0.6-10.6 5.3-0.3 5.2-0.3zm35.2 11.5c-0.5-0.6-6.9-0.9-16.9-0.7l-16.3 0.2v9h10v21h10v-10h12v10h10.8l-0.9-3.8c-0.4-2-2.4-8.5-4.4-14.2-2.1-5.8-4-11-4.3-11.5zm-519.2-0.5h-10.8l-1 2.7c-0.5 1.6-1.3 3.6-1.7 4.5-0.7 1.7 0.3 1.8 11.8 1.8h12.5l0.6-2.6c0.4-1.4 0.4-3.4 0.1-4.5-0.6-1.7-1.7-1.9-11.5-1.9zm452 11h-9v9h9zm-451.5 10.5l-4.2-0.3c-2.4-0.2-4.4 0-4.5 0.5 0 0.4-0.2 1.2-0.3 1.8-0.2 0.5-0.3 2.7-0.4 4.7l-0.1 3.8h-11.8l-1 6.2c-2.4 13.7-2.4 13.8-0.8 13.8 1.1 0 1.6-1.4 1.8-5.3l0.3-5.2 21.6-0.6zm440.5-0.5h-9v9h9zm0 22h-9v9h9zm-365 11h-9v9h9zm365 10h-9v9h9zm16.4 11h-4.5l0.3 4.2 0.3 4.3h4.3c2.3 0 4.2-0.3 4.2-0.8 0-0.4 0-2.3 0-4.2 0-3.5 0-3.5-4.6-3.5zm-5.4 11h-20v20h9v-11h11zm21 0h-9v9h9zm22 0h-9v9h9zm-11 11h-9v19h9zm-417 47.1v3.9h9v-3.9c0-3.2-0.4-4-2.2-4.5-5.1-1.3-6.8-0.2-6.8 4.5zm396.1 70.9h-10.2l0.3 4.2 0.3 4.3h9l0.3-4.3zm-11.1 10h-9v9h9zm10.5 11.5l-4.7-0.3-4.8-0.3v21.1l-9 0.1c-4.9 0.1-9.6 0.2-10.2 0.3-0.8 0.1-1.4 2-1.6 4.8l-0.3 4.8h16.1l7.8-9.4 7.7-9.4-0.5-5.8zm-21.5-0.5h-9v9h9zm-301 86h-9v9h9zm172 11h-9v11.1l-7.7-0.2c-4.3-0.1-9-0.2-10.5-0.1l-2.8 0.2v19h9v-10h21zm-107 11h-9v10h-22v10.9l-4.1 0.3-4.2 0.3 19.3 14c23.4 17 22.5 16.4 27.8 16.5 4 0 4.2 0.1 4.2 3 0 2.4 0.8 3.5 3.8 5.3 3.1 2 4.7 2.3 10 1.9l6.3-0.4-0.3-9.6-0.3-9.7-5.2-0.3-5.3-0.3v-9.9h-9v10h-12v-22.9l5.3-0.3 5.2-0.3v-8l-5.2-0.3-5.3-0.3zm64 10h-9v32l-2.5 0.6c-1.4 0.3-3.7 0.4-5 0.2l-2.5-0.5v30.7h8.8c8.4 0 8.9-0.2 15-4 3.4-2.2 6.2-4.7 6.2-5.5 0-0.9 0.9-1.5 2.3-1.5 1.3 0 5.9-2.5 10.3-5.4l7.9-5.5 1-20.6 12.4-0.6 0.3 5.6 0.3 5.7 4.3-3.1 4.2-3.1v-25h-9v11h-22v21.7l-10-0.2v10.5h-13v-12h11v-20h-11z"/><path  d="m338 50v6h6 6v-6-6h-6-6z"/><path  d="m359 50v6h11.5 11.5v-6-6h-11.5-11.5z"/><path  d="m391 54.5v10.5h-5-5v6 6h6 6v-5-5h10.5 10.5v-6.5-6.5h-5.5-5.5v-5-5h-6-6z"/><path  d="m209 65.5v11.5h6 6.1l-0.3-11.3-0.3-11.2-5.7-0.3-5.8-0.3z"/><path  d="m230 71v6h6 6v-6-6h-6-6z"/><path  d="m327 71v6h11.5 11.6l-0.3-5.8-0.3-5.7-11.2-0.3-11.3-0.3z"/><path  d="m359 71v6h6 6v-6-6h-6-6z"/><path  d="m531 157v6h6 6v-6-6h-6-6z"/><path  d="m69.2 178.7l0.3 5.8 5.8 0.3 5.7 0.3v-6.1-6h-6-6.1z"/><path  d="m552.7 183.6c-0.4 0.4-0.7 3.1-0.7 6.1v5.3h6.5 6.6l-0.3-5.8-0.3-5.7-5.5-0.3c-3.1-0.2-5.9 0-6.3 0.4z"/><path  d="m26 200v6h6 6v-6-6h-6-6z"/><path  d="m543.8 215.7c-1.5 0.4-1.8 1.6-1.8 6.4v6l5.8-0.3 5.7-0.3v-6-6l-4-0.2c-2.2 0-4.8 0.1-5.7 0.4z"/><path  d="m47.8 218.7c-0.2 1.6-0.1 4.3 0.1 6.1l0.3 3.3 5.7-0.3 5.6-0.3 0.3-5.8 0.3-5.7h-6c-5.8 0-6 0.1-6.3 2.7z"/><path  d="m58 243v6h5.9c3.3 0 6.2-0.3 6.4-0.8 0.2-0.4 0.2-3.1-0.1-6l-0.4-5.2h-5.9-5.9z"/><path  d="m542 243v6h6 6v-6-6h-6-6z"/><path  d="m456 269.5v11.5h11.5 11.6l-0.3-5.8-0.3-5.7-5.2-0.3-5.2-0.3-0.3-5.2-0.3-5.2-5.7-0.3-5.8-0.3z"/><path  d="m112 318v6h6 6v-6-6h-6-6z"/><path  d="m80 328.9v6l5.3 0.3 5.2 0.3 0.1 4c0.1 2.2 0.2 4.6 0.3 5.2 0.1 0.9 1.8 1.3 5.1 1.3h5v4.9 5l11.5 0.3 11.5 0.3v-11.8-11.7h-10.5-10.5v-5-5h-11.5-11.5z"/><path  d="m295 415v6h6 6v-6-6h-6-6z"/><path  d="m48 71v6h6 6v-6-6h-6-6z"/><path  d="m219.4 463.3c-0.3 0.8-0.4 3.6-0.2 6.3l0.3 4.9h6 6v-6-6l-5.8-0.3c-4.2-0.2-5.9 0.1-6.3 1.1z"/></svg>