<?xml version="1.0" standalone="no"?>
<!DOCTYPE svg PUBLIC "-//W3C//DTD SVG 20010904//EN"
 "http://www.w3.org/TR/2001/REC-SVG-20010904/DTD/svg10.dtd">
<svg version="1.0" xmlns="http://www.w3.org/2000/svg"
 width="580.000000pt" height="538.000000pt" viewBox="0 0 580.000000 538.000000"
 preserveAspectRatio="xMidYMid meet">

<g transform="translate(0.000000,538.000000) scale(0.100000,-0.100000)"
fill="#000000" stroke="none">
<path d="M1425 5374 c-382 -57 -667 -190 -909 -424 -248 -239 -398 -521 -470
-882 -74 -368 -53 -682 71 -1088 280 -914 1069 -1825 2309 -2667 206 -140 462
-303 476 -303 24 0 563 363 798 538 1040 773 1705 1562 1972 2342 157 457 169
984 33 1385 -65 192 -135 323 -250 470 -234 297 -573 496 -978 572 -134 25
-466 25 -602 -1 -202 -37 -406 -119 -570 -228 -117 -77 -277 -242 -349 -361
l-59 -96 -39 66 c-163 279 -434 495 -755 602 -163 55 -271 72 -468 76 -99 2
-193 1 -210 -1z m15 -214 l0 -110 -100 0 -100 0 0 55 0 55 -107 0 c-105 1
-107 1 -73 16 69 30 275 81 373 93 4 1 7 -48 7 -109z m320 45 l0 -45 -45 0
-45 0 0 45 0 45 45 0 45 0 0 -45z m2655 14 c39 -6 87 -15 108 -20 l37 -10 0
-69 0 -70 -100 0 -100 0 0 55 0 55 -110 0 -110 0 0 33 c0 19 3 37 8 41 8 9
161 0 267 -15z m-2360 -13 c53 -23 46 -46 -14 -46 -47 0 -48 1 -47 30 1 34 11
36 61 16z m1857 -28 c3 -32 4 -33 56 -36 l52 -3 0 -49 0 -49 53 -3 52 -3 3
-52 3 -53 215 0 214 0 0 -55 0 -55 50 0 50 0 0 -101 0 -100 -42 3 -43 3 -3 53
-3 52 -50 0 -49 0 0 49 c0 35 -4 51 -16 55 -9 3 -60 6 -115 6 l-99 0 -2 -72
c-1 -40 -3 -92 -4 -115 l-2 -43 64 0 64 0 0 49 c0 44 2 49 26 54 52 10 64 -1
64 -54 l0 -49 55 0 55 0 0 -55 0 -55 105 0 105 0 0 -100 0 -100 -105 0 -105 0
0 -115 0 -115 50 0 50 0 0 -45 0 -45 -50 0 -50 0 0 -330 0 -330 50 0 50 0 0
-45 0 -45 -50 0 -50 0 0 -115 0 -115 105 0 105 0 0 -55 0 -55 60 0 60 0 0 60
0 60 -50 0 -50 0 0 100 0 100 150 0 150 0 0 -45 0 -45 -50 0 -50 0 0 -115 0
-115 60 0 60 0 0 105 0 105 45 0 45 0 0 -50 0 -50 60 0 60 0 0 60 0 60 -50 0
-50 0 0 45 0 45 50 0 49 0 3 108 3 107 53 3 52 3 0 60 0 59 -55 0 -55 0 0 50
0 50 -60 0 -60 0 0 -50 0 -50 -45 0 -45 0 0 105 0 105 -104 0 -103 0 -7 90
c-4 49 -5 94 -1 100 3 5 26 10 51 10 l44 0 0 -50 0 -50 115 0 115 0 0 50 0 50
105 0 105 0 0 55 0 55 44 0 45 0 3 -52 3 -53 53 -3 52 -3 0 -45 0 -44 -55 0
-56 0 3 -112 3 -113 60 0 60 0 3 53 c3 45 6 52 24 52 20 0 21 -3 15 -187 -6
-207 -10 -233 -38 -233 -17 0 -19 -9 -19 -108 0 -122 -22 -212 -103 -417 -41
-106 -44 -110 -74 -113 -31 -3 -32 -5 -35 -55 l-3 -52 -45 0 -45 0 -3 53 -3
52 -50 0 -49 0 0 49 c0 61 1 61 -192 61 l-148 0 0 -170 0 -170 104 0 105 0 3
-53 3 -52 60 0 60 0 3 53 3 52 70 0 c38 0 69 -3 69 -6 0 -18 -223 -368 -241
-380 -5 -3 -9 38 -9 90 l0 96 -55 0 -55 0 0 55 0 55 -105 0 -105 0 0 49 c0 48
0 48 -37 55 -48 7 -141 8 -170 0 -21 -6 -23 -13 -23 -65 l0 -59 105 0 105 0 0
-100 0 -100 -105 0 -105 0 0 -115 0 -115 50 0 50 0 0 -45 0 -45 -50 0 -50 0 0
-60 0 -60 50 0 51 0 -3 -97 -3 -98 -47 -3 -48 -3 0 -45 c0 -43 -4 -49 -67
-109 l-68 -64 -97 -1 -98 0 0 -50 0 -50 -45 0 -45 0 0 50 0 50 -115 0 -115 0
0 -60 0 -60 110 0 110 0 0 -74 c0 -73 -1 -76 -33 -100 -19 -15 -39 -26 -45
-26 -6 0 -12 23 -14 53 l-3 52 -62 3 -63 3 0 -111 0 -110 -55 0 -55 0 -1 -52
c0 -46 -4 -56 -29 -75 -60 -48 -62 -46 -60 58 1 52 2 113 1 137 l-1 42 -50 0
-50 0 0 45 0 45 105 0 105 0 0 65 0 65 -55 0 -55 0 0 50 0 50 -60 0 -60 0 0
-50 0 -50 -215 0 -215 0 0 -55 0 -56 -152 3 -153 3 3 40 c4 64 -1 66 -124 63
l-109 -3 0 -60 0 -60 53 -3 52 -3 0 -104 0 -104 53 -3 52 -3 3 -97 3 -98 -45
0 -45 0 -3 52 -3 53 -52 3 -53 3 0 105 0 104 -104 0 -105 0 -3 52 -3 53 -62 3
-63 3 0 -56 0 -55 -45 0 -44 0 -3 108 -3 107 -52 3 -53 3 0 50 0 49 -60 0 -60
0 0 -50 0 -50 -100 0 -100 0 0 50 0 50 -60 0 -60 0 0 -50 0 -50 -93 0 -92 0
-150 150 c-145 145 -149 150 -117 150 l32 0 0 115 0 115 -60 0 -60 0 0 -80 c0
-44 -4 -80 -9 -80 -5 0 -25 20 -45 44 -26 33 -36 54 -36 80 0 34 -2 36 -34 36
-27 0 -39 7 -55 29 -12 16 -21 41 -21 55 0 21 -5 26 -24 26 -19 0 -41 23 -104
108 -72 96 -81 113 -84 157 -3 49 -4 50 -36 53 -30 3 -39 13 -88 89 -73 112
-73 113 -35 113 31 0 31 -1 31 -50 l0 -50 60 0 60 0 0 60 0 60 -50 0 -50 0 0
100 0 100 50 0 50 0 0 60 0 60 -60 0 -60 0 0 -55 0 -55 -95 0 -95 0 -20 40
c-24 47 -24 50 -5 50 12 0 15 13 15 55 l0 55 55 0 55 0 0 59 0 60 -52 3 -53 3
-3 52 -3 52 -82 3 -81 3 -12 40 -11 40 41 5 41 5 0 60 0 60 -57 3 c-60 3 -58
2 -72 65 -5 20 -3 27 9 27 12 0 15 13 15 60 0 56 -1 60 -24 60 -21 0 -24 6
-30 53 -3 28 -6 73 -6 100 0 46 1 47 30 47 l29 0 3 108 3 107 103 3 102 3 0
49 0 50 45 0 45 0 0 -150 0 -150 -45 0 -45 0 0 50 0 50 -60 0 -61 0 3 -112 3
-113 165 0 165 0 3 108 3 107 49 0 50 0 0 50 0 50 50 0 50 0 0 -50 0 -50 105
0 105 0 0 -51 0 -50 -47 3 -48 3 -3 -62 -3 -63 51 0 50 0 0 -45 0 -45 -105 0
-105 0 0 -220 0 -220 50 0 50 0 0 -50 0 -50 -50 0 -50 0 0 -116 0 -116 158 3
157 4 3 -97 3 -98 -101 0 -100 0 0 50 0 50 -60 0 -60 0 0 -165 0 -165 60 0 60
0 0 50 0 50 104 0 105 0 3 53 3 52 53 3 52 3 0 115 0 114 -50 0 -50 0 0 45 0
45 50 0 50 0 0 115 0 115 -50 0 -50 0 0 55 0 55 -55 0 -55 0 0 100 0 100 54 0
54 0 -2 53 -1 52 53 3 52 3 0 60 0 59 -105 0 -105 0 0 45 0 45 105 0 105 0 0
170 0 170 -50 0 -50 0 0 100 0 100 50 0 50 0 0 115 0 115 -60 0 -60 0 0 -55 0
-55 -45 0 -45 0 0 55 0 55 -110 0 -110 0 0 45 0 45 159 0 160 0 3 53 3 52 53
3 52 3 0 50 0 49 50 0 50 0 0 -50 0 -50 60 0 60 0 0 60 0 60 -55 0 -55 0 0
100 0 100 45 0 45 0 0 -55 0 -55 55 0 55 0 0 -105 0 -105 60 0 60 0 0 50 0 50
45 0 45 0 0 -50 0 -50 115 0 115 0 0 60 0 60 -50 0 -50 0 0 55 0 55 -55 0 -55
0 0 150 0 150 45 0 45 0 0 -50 0 -50 55 0 55 0 0 -55 0 -55 115 0 115 0 0 60
0 60 -55 0 -55 0 0 45 0 45 60 0 c41 0 74 -7 100 -20 l40 -20 0 -85 0 -85 55
0 55 0 0 -55 0 -55 60 0 60 0 0 57 0 57 60 -59 c32 -32 73 -78 90 -102 l31
-43 -39 0 c-46 0 -52 -9 -52 -76 l0 -44 64 0 65 0 3 32 c3 31 5 29 41 -42 l39
-75 -49 -5 -48 -5 -3 -107 -3 -108 -104 0 -105 0 0 -60 0 -60 115 0 115 0 0
50 0 50 50 0 50 0 0 53 0 53 100 2 100 2 0 -100 0 -100 -105 0 -105 0 0 -105
0 -105 -100 0 -100 0 0 50 c0 57 8 54 -120 54 l-95 1 -3 53 -3 52 -115 0 -115
0 3 -57 3 -58 52 -3 52 -3 3 -52 3 -52 53 -3 53 -3 -3 -97 -3 -97 -42 -3 -43
-3 0 55 0 56 -65 0 -65 0 0 -60 0 -60 55 0 55 0 0 -55 0 -55 59 0 60 0 3 53 3
52 45 0 45 0 3 -97 3 -98 -211 0 -210 0 0 55 0 55 -60 0 -60 0 0 -65 0 -65 56
0 55 0 -3 -42 -3 -43 -52 -3 -53 -3 0 -48 c0 -44 -3 -49 -26 -55 -49 -13 -64
0 -64 55 l0 49 -55 0 -55 0 0 110 0 111 -112 -3 -113 -3 -3 -112 -3 -113 33 0
c69 0 78 -8 78 -61 l0 -49 105 0 105 0 0 -45 0 -45 -215 0 -215 0 0 -55 0 -55
-50 0 -50 0 0 -170 0 -170 50 0 50 0 0 -100 0 -100 -50 0 -50 0 0 -60 0 -60
60 0 60 0 0 55 0 55 55 0 55 0 0 105 0 105 105 0 105 0 0 55 0 55 45 0 45 0 0
-156 0 -155 -42 3 -43 3 -3 53 -3 52 -60 0 -59 0 0 -115 0 -115 275 0 275 0 0
60 0 60 -105 0 -105 0 0 45 0 45 50 0 50 0 0 55 0 55 45 0 45 0 0 -49 c0 -35
4 -51 16 -55 9 -3 58 -6 110 -6 l95 0 -3 -42 -3 -43 -52 -3 -53 -3 0 -60 0
-59 55 0 55 0 0 -45 0 -45 -105 0 -105 0 -1 -30 c-1 -16 -2 -70 -2 -120 0 -49
1 -137 2 -195 l1 -105 50 0 50 0 0 -45 0 -45 -49 0 c-35 0 -51 -4 -55 -16 -8
-20 -8 -178 0 -198 5 -14 29 -16 165 -16 l159 0 0 -105 0 -105 60 0 60 0 0
105 0 105 100 0 100 0 0 -45 0 -45 -55 0 -55 0 0 -59 0 -59 36 -6 c20 -4 49
-4 65 -1 27 6 29 10 29 56 l0 49 105 0 106 0 -3 63 -3 62 -52 3 -53 3 0 50 0
49 -160 0 -160 0 0 100 0 100 204 0 205 0 3 -51 3 -51 60 -2 60 -1 3 63 3 62
-56 0 -56 0 3 98 3 97 150 0 150 0 3 -42 3 -43 -55 0 -56 0 0 -115 0 -115 60
0 60 0 0 105 0 105 50 0 c48 0 50 -1 50 -27 0 -82 51 -150 128 -174 24 -7 88
-10 165 -8 l127 4 0 -52 0 -53 -50 0 -50 0 0 -50 0 -50 -55 0 -55 0 0 -55 0
-55 -44 0 -45 0 -3 53 -3 52 -52 3 -53 3 0 50 0 49 -170 0 -170 0 0 -165 0
-165 158 -2 c86 -1 171 -1 187 -1 17 1 119 1 228 2 l197 1 0 50 0 50 45 0 45
0 0 -50 0 -50 60 0 60 0 0 106 0 105 48 -3 47 -3 3 -102 3 -103 59 0 60 0 0
105 0 105 49 0 c56 0 61 7 61 76 l0 44 -55 0 -55 0 0 50 0 50 49 0 c57 0 61 6
61 115 0 109 -4 115 -61 115 l-49 0 0 44 0 45 53 3 52 3 0 55 0 55 -108 3
-108 3 3 152 3 152 40 1 c22 1 46 2 53 3 9 1 12 40 12 161 l0 160 55 0 55 0 0
99 c0 55 -3 106 -6 115 -5 13 -25 16 -110 16 l-104 0 0 55 0 56 -112 -3 -113
-3 0 -60 0 -60 53 -3 52 -3 0 -105 0 -104 49 0 c46 0 49 -2 52 -27 2 -16 3
-61 1 -100 l-4 -73 -39 0 c-30 0 -39 4 -40 18 -2 28 -7 76 -8 85 -1 4 -23 7
-51 7 l-50 0 0 105 0 105 -110 0 -110 0 0 55 0 55 -59 0 -60 0 -3 -52 -3 -53
-42 -3 -42 -3 -3 108 -3 108 -52 3 -53 3 0 45 0 44 160 0 160 0 -2 168 -3 167
-57 3 -58 3 0 -56 0 -55 -45 0 -45 0 0 215 0 215 -55 0 -55 0 0 45 0 45 55 0
56 0 -3 58 -3 57 -62 3 -63 3 0 -51 0 -50 -45 0 -45 0 0 105 0 105 -49 0 -50
0 -6 55 -7 55 -104 0 -104 0 0 50 0 50 -50 0 c-28 0 -50 5 -50 10 0 6 9 29 20
50 l20 40 85 0 85 0 0 59 0 60 -46 3 -45 3 33 43 c32 42 33 42 95 42 l63 0 0
60 0 59 72 51 71 50 94 0 93 0 0 45 c0 48 1 49 68 69 21 7 22 5 22 -53 l0 -61
60 0 60 0 0 79 c0 75 1 80 23 84 58 11 66 8 69 -25z m-2252 -83 l0 -45 -45 0
-45 0 0 45 0 45 45 0 45 0 0 -45z m3094 39 c11 -4 16 -19 16 -45 l0 -39 -45 0
-45 0 0 45 c0 43 1 45 29 45 16 0 36 -3 45 -6z m-3844 -64 c0 -29 1 -30 50
-30 l50 0 0 -100 0 -100 -45 0 -45 0 0 50 0 50 -60 0 -60 0 0 -105 0 -105 -55
0 -55 0 0 -170 0 -170 55 0 55 0 0 -55 0 -55 105 0 105 0 0 -95 0 -95 -45 0
-45 0 0 50 0 50 -60 0 -60 0 0 -105 0 -105 -55 0 -55 0 0 -55 0 -55 -45 0 -45
0 0 104 0 105 -52 3 -53 3 -3 48 -3 47 55 0 56 0 0 115 0 115 -55 0 -55 0 0
49 0 50 -52 3 -53 3 -3 56 c-3 52 0 59 44 120 75 103 103 129 141 129 31 0 33
2 33 33 0 41 32 74 75 79 23 2 30 8 31 26 1 25 11 33 114 99 79 51 90 52 90
13z m4158 -107 c19 -18 38 -33 42 -33 4 0 31 -19 59 -41 37 -30 49 -45 42 -52
-7 -7 -11 -55 -11 -114 l0 -103 -45 0 -45 0 0 55 0 55 -55 0 -55 0 0 55 0 55
-160 0 -160 0 0 45 0 45 105 0 105 0 0 71 0 70 72 -38 c39 -21 87 -53 106 -70z
m-3523 27 l0 -45 -42 -3 -43 -3 0 51 0 51 43 -3 42 -3 0 -45z m3115 0 l0 -51
-42 3 c-41 3 -43 5 -46 37 -5 51 3 61 48 61 l40 0 0 -50z m-3430 -105 l0 -45
-45 0 -45 0 0 45 0 45 45 0 45 0 0 -45z m428 -2 l3 -43 -45 0 c-52 0 -60 9
-51 56 6 34 7 35 48 32 42 -3 42 -3 45 -45z m-538 -163 l0 -101 -152 3 -153 3
-3 42 -3 42 108 3 108 3 3 53 3 52 45 0 44 0 0 -100z m4290 -92 c0 -5 -20 -8
-45 -8 l-45 0 0 58 1 57 44 -50 c25 -27 45 -53 45 -57z m-532 -15 l-3 -98 -40
0 -40 0 -3 98 -3 97 46 0 46 0 -3 -97z m427 -53 l0 -45 -42 -3 -43 -3 0 51 0
51 43 -3 42 -3 0 -45z m-105 -104 l0 -45 -52 -3 -53 -3 -3 -53 -3 -53 -97 3
-97 3 -3 43 -3 42 55 0 56 0 0 55 0 55 100 0 100 0 0 -44z m395 -186 c20 -57
40 -122 44 -142 l9 -38 -54 0 -54 0 0 50 0 50 -60 0 -60 0 0 -50 0 -50 -50 0
-50 0 0 105 0 105 -50 0 -50 0 0 45 0 45 163 2 c100 2 164 -1 169 -7 3 -5 22
-57 43 -115z m-5120 101 c3 -11 3 -31 -1 -45 l-6 -26 -125 0 c-115 0 -125 1
-118 18 4 9 12 29 17 45 l10 27 108 0 c98 0 109 -2 115 -19z m2793 -133 c-3
-43 -3 -43 -45 -46 l-43 -3 0 45 0 46 46 0 45 0 -3 -42z m1612 -3 l0 -45 -45
0 -45 0 0 45 0 45 45 0 45 0 0 -45z m-4512 -157 l3 -97 -108 -3 -108 -3 -3
-52 c-2 -39 -7 -53 -18 -53 -16 0 -16 1 8 138 l10 62 59 0 59 0 1 38 c1 20 2
42 4 47 1 6 3 14 3 18 1 5 21 7 45 5 l42 -3 3 -97z m2790 55 l3 -43 -45 0 -46
0 0 46 0 45 43 -3 c42 -3 42 -3 45 -45z m1612 2 l0 -45 -45 0 -45 0 0 45 0 45
45 0 45 0 0 -45z m-1720 -110 l0 -45 -45 0 -45 0 0 45 0 45 45 0 45 0 0 -45z
m218 -12 l3 -53 50 0 49 0 0 -45 0 -45 -49 0 -50 0 -3 -52 -3 -53 -42 -3 -43
-3 0 156 0 156 43 -3 42 -3 3 -52z m-322 -77 c12 -49 2 -61 -46 -61 -42 0 -45
2 -48 28 -6 46 4 57 47 57 35 0 42 -4 47 -24z m1824 -21 l0 -45 -45 0 -45 0 0
45 0 45 45 0 45 0 0 -45z m-3650 -110 l0 -45 -45 0 -45 0 0 45 0 45 45 0 45 0
0 -45z m1500 -1 l0 -44 -45 0 -45 0 0 44 0 44 45 0 45 0 0 -44z m220 -4 l0
-50 49 0 49 0 7 -75 c4 -41 4 -86 1 -100 -6 -22 -12 -25 -51 -25 l-45 0 0 55
0 55 -50 0 -50 0 0 95 0 95 45 0 45 0 0 -50z m210 6 l0 -44 -42 2 -43 1 -3 43
-3 42 45 0 46 0 0 -44z m430 -106 l0 -150 -45 0 -45 0 0 55 0 55 -56 0 -55 0
3 43 3 42 53 3 52 3 0 50 0 49 45 0 45 0 0 -150z m1290 5 l0 -45 -45 0 -45 0
0 45 0 45 45 0 45 0 0 -45z m-2040 -165 l0 -100 -55 0 -55 0 0 -49 0 -50 -52
-3 -52 -3 3 -52 2 -53 -50 0 -51 0 0 50 0 49 -102 3 -103 3 -3 43 -3 42 160 0
161 0 0 55 0 55 55 0 55 0 0 55 0 55 45 0 45 0 0 -100z m430 0 l0 -100 -45 0
-45 0 0 100 0 100 45 0 45 0 0 -100z m1820 65 c0 -19 0 -38 0 -42 0 -5 -19 -8
-42 -8 l-43 0 -3 43 -3 42 45 0 c46 0 46 0 46 -35z m-1390 -120 l0 -45 -45 0
-45 0 0 45 0 45 45 0 45 0 0 -45z m1290 0 l0 -45 -55 0 -55 0 0 -55 0 -55 -45
0 -45 0 0 100 0 100 100 0 100 0 0 -45z m210 0 l0 -45 -45 0 -45 0 0 45 0 45
45 0 45 0 0 -45z m220 0 l0 -45 -45 0 -45 0 0 45 0 45 45 0 45 0 0 -45z
m-2287 -65 l27 0 0 -95 0 -95 -105 0 -105 0 0 -110 0 -110 -55 0 -55 0 0 -50
0 -50 -100 0 -100 0 0 95 0 95 55 0 55 0 0 55 0 55 55 0 55 0 0 55 0 55 50 0
50 0 0 49 0 50 53 4 c28 2 61 2 72 0 11 -1 32 -3 48 -3z m457 -45 l0 -45 -55
0 -55 0 0 -50 0 -50 -95 0 -95 0 0 45 0 45 50 0 50 0 0 50 0 50 100 0 100 0 0
-45z m1720 -50 l0 -95 -45 0 -45 0 0 95 0 95 45 0 45 0 0 -95z m-3010 -60 l0
-55 110 0 111 0 -3 -97 -3 -98 -42 -3 -43 -3 0 55 0 56 -65 0 -65 0 0 -105 0
-105 -45 0 -45 0 0 50 0 50 -105 0 -105 0 0 45 0 45 105 0 105 0 0 65 0 65
-50 0 -50 0 0 45 0 45 95 0 95 0 0 -55z m970 -100 l0 -45 -45 0 -45 0 0 45 0
45 45 0 45 0 0 -45z m-1400 -165 l0 -100 -105 0 -105 0 0 -50 0 -50 -45 0 -45
0 0 100 0 100 105 0 105 0 0 50 0 50 45 0 45 0 0 -100z m1290 55 l0 -45 -45 0
-45 0 0 45 0 45 45 0 45 0 0 -45z m-1952 -61 c18 -5 22 -13 22 -45 l0 -39 -45
0 -45 0 0 39 c0 47 17 58 68 45z m2686 0 c12 -4 16 -20 16 -55 l0 -49 55 0 55
0 0 -44 0 -45 -52 -3 -52 -3 -1 -110 0 -110 63 -3 62 -3 0 51 0 50 45 0 45 0
0 -49 0 -50 53 -3 52 -3 0 -95 0 -95 -52 -3 -53 -3 0 -55 0 -54 -45 47 c-43
44 -45 49 -45 105 l0 58 -65 0 -65 0 0 -55 0 -55 -45 0 -45 0 0 60 0 60 -50 0
-50 0 0 50 0 50 -65 0 -65 0 0 -49 c0 -44 -2 -49 -26 -54 -60 -11 -64 -4 -64
109 l0 104 -105 0 -105 0 0 101 0 100 43 -3 42 -3 3 -52 3 -53 115 0 114 0 0
55 0 55 105 0 105 0 0 49 c0 43 3 50 23 54 12 2 25 5 29 6 3 0 13 -2 22 -5z
m-840 -20 c3 -8 3 -26 0 -40 -5 -21 -12 -24 -50 -24 l-44 0 0 40 0 40 44 0
c31 0 46 -5 50 -16z m-862 -129 l3 -45 -42 0 -43 0 0 45 0 45 39 0 39 0 4 -45z
m753 -110 l0 -150 -97 -3 -98 -3 0 101 0 100 55 0 55 0 0 56 0 55 43 -3 42 -3
0 -150z m215 110 l0 -45 -45 0 -45 0 0 38 c0 21 3 42 7 45 3 4 24 7 45 7 l38
0 0 -45z m-540 -111 l0 -45 -42 3 c-46 3 -55 17 -44 64 5 20 12 24 46 24 l40
0 0 -46z m540 -110 l0 -45 -42 3 c-43 3 -43 3 -46 46 l-3 42 45 0 46 0 0 -46z
m-432 -101 l3 -43 -100 0 -101 0 0 39 c0 47 3 48 115 47 l80 -1 3 -42z m652
-3 l0 -40 -45 0 -45 0 0 40 0 40 45 0 45 0 0 -40z m-540 -105 l0 -45 -45 0
-45 0 0 45 0 45 45 0 45 0 0 -45z m430 0 l0 -45 -55 0 -55 0 0 -55 0 -55 -45
0 -45 0 0 100 0 100 100 0 100 0 0 -45z m210 0 l0 -45 -44 0 -44 0 3 43 c1 23
3 43 4 45 0 1 19 2 41 2 l40 0 0 -45z m220 -12 c0 -53 -2 -60 -30 -78 -37 -25
-70 -89 -70 -138 l0 -37 -50 0 -50 0 0 100 0 100 55 0 55 0 0 55 0 55 45 0 45
0 0 -57z m-968 -105 l3 -53 158 -3 157 -3 0 -44 0 -45 -50 0 -50 0 0 -50 0
-50 -45 0 -45 0 0 50 0 50 -65 0 -65 0 0 -105 0 -105 -45 0 -45 0 0 50 c0 46
-2 50 -24 50 -13 0 -37 3 -54 6 l-30 6 1 94 1 94 53 0 53 0 0 55 0 55 44 0 45
0 3 -52z m1300 -48 l30 -30 -4 -136 c-3 -135 -3 -136 -31 -160 -27 -23 -35
-24 -158 -24 l-131 0 -29 29 -29 29 0 135 0 135 31 26 c29 25 35 26 161 26
l130 0 30 -30z m1066 -52 l-3 -43 -45 0 -45 0 -3 43 -3 42 51 0 51 0 -3 -42z
m-758 -114 l0 -54 55 0 55 0 0 -100 0 -100 -45 0 -45 0 0 55 0 55 -55 0 -55 0
0 94 c0 103 -1 101 63 103 26 2 27 0 27 -53z m650 11 l0 -45 -45 0 -45 0 0 45
0 45 45 0 45 0 0 -45z m-110 -110 l0 -45 -45 0 -45 0 0 45 0 45 45 0 45 0 0
-45z m220 -19 l5 -58 -77 -94 -78 -94 -81 0 -80 0 3 48 c2 28 8 47 16 48 6 1
53 2 102 3 l90 1 0 106 0 105 48 -3 47 -3 5 -59z m-2472 -69 c2 -10 1 -29 -2
-43 -5 -20 -12 -24 -46 -24 -42 0 -53 15 -48 68 2 21 7 23 48 20 34 -2 46 -7
48 -21z m1612 -22 l0 -45 -100 0 -100 0 43 44 c40 42 45 44 100 45 l57 1 0
-45z m100 -111 l0 -45 -42 3 c-43 3 -43 3 -46 46 l-3 42 45 0 46 0 0 -46z
m-1610 -99 l0 -45 -45 0 -45 0 0 38 c0 21 3 42 7 45 3 4 24 7 45 7 l38 0 0
-45z m1508 -2 l3 -43 -100 0 -101 0 0 45 0 46 98 -3 97 -3 3 -42z m212 2 l0
-45 -45 0 -45 0 0 45 0 45 45 0 45 0 0 -45z m-2580 -540 l0 -45 -45 0 -45 0 0
45 0 45 45 0 45 0 0 -45z m1720 -165 l0 -100 -105 0 -105 0 0 -50 0 -50 -45 0
-45 0 0 95 0 95 28 2 c15 1 62 0 105 -1 l77 -2 0 56 0 55 45 0 45 0 0 -100z
m-1070 -59 l0 -50 53 -3 52 -3 0 -40 0 -40 -52 -3 -53 -3 0 -115 0 -114 60 0
60 0 0 50 0 50 45 0 45 0 0 -49 0 -50 53 -3 52 -3 3 -97 3 -96 -63 -4 c-53 -4
-69 -1 -100 19 -30 18 -38 29 -38 53 0 29 -2 30 -42 30 -53 1 -44 -5 -278 165
l-193 140 42 3 41 3 0 55 0 54 110 0 110 0 0 50 0 50 45 0 45 0 0 -49z m640
-106 l0 -55 55 0 55 0 0 -100 0 -100 -55 0 -55 0 0 -60 0 -60 65 0 65 0 0 53
0 52 50 -1 50 -1 0 108 0 109 110 0 110 0 0 55 0 55 45 0 45 0 0 -125 0 -125
-42 -31 -43 -31 -3 57 -3 56 -62 -3 -62 -3 -5 -103 -5 -103 -79 -55 c-44 -29
-90 -54 -103 -54 -14 0 -23 -6 -23 -15 0 -8 -28 -33 -62 -55 -61 -38 -66 -40
-150 -40 l-88 0 0 154 0 153 25 -5 c13 -2 36 -1 50 2 l25 6 0 160 0 160 45 0
45 0 0 -55z"/>
<path d="M3380 4880 l0 -60 60 0 60 0 0 60 0 60 -60 0 -60 0 0 -60z"/>
<path d="M3590 4880 l0 -60 115 0 115 0 0 60 0 60 -115 0 -115 0 0 -60z"/>
<path d="M3910 4835 l0 -105 -50 0 -50 0 0 -60 0 -60 60 0 60 0 0 50 0 50 105
0 105 0 0 65 0 65 -55 0 -55 0 0 50 0 50 -60 0 -60 0 0 -105z"/>
<path d="M2090 4725 l0 -115 60 0 61 0 -3 113 -3 112 -57 3 -58 3 0 -116z"/>
<path d="M2300 4670 l0 -60 60 0 60 0 0 60 0 60 -60 0 -60 0 0 -60z"/>
<path d="M3270 4670 l0 -60 115 0 116 0 -3 58 -3 57 -112 3 -113 3 0 -61z"/>
<path d="M3590 4670 l0 -60 60 0 60 0 0 60 0 60 -60 0 -60 0 0 -60z"/>
<path d="M2243 4512 l-53 -3 0 -110 0 -109 65 0 65 0 0 50 0 50 105 0 105 0 0
59 0 59 -82 6 c-46 3 -99 4 -118 3 -19 -1 -59 -3 -87 -5z"/>
<path d="M1510 4495 c-58 -18 -115 -66 -143 -118 -21 -40 -22 -54 -22 -247 0
-192 1 -208 22 -246 25 -47 73 -91 120 -110 22 -10 90 -14 232 -15 l200 -1 50
28 c51 27 86 65 109 117 8 19 12 92 12 225 0 170 -3 202 -19 237 -24 52 -58
88 -112 116 -40 21 -59 23 -224 26 -136 2 -191 -1 -225 -12z m413 -118 c56
-37 60 -52 60 -246 0 -169 -1 -180 -22 -210 -38 -53 -50 -55 -245 -53 -263 3
-266 6 -266 264 0 259 12 271 275 266 143 -3 175 -6 198 -21z"/>
<path d="M1586 4264 c-25 -25 -26 -32 -26 -125 0 -155 14 -169 165 -169 85 0
97 2 122 24 27 23 28 28 31 130 l4 106 -30 30 c-30 30 -32 30 -135 30 -99 0
-106 -1 -131 -26z"/>
<path d="M3377 4497 c-3 -7 -3 -34 0 -60 l6 -47 58 0 59 0 0 60 0 60 -59 0
c-39 0 -61 -4 -64 -13z"/>
<path d="M3877 4496 c-61 -17 -116 -61 -144 -117 -19 -38 -23 -65 -27 -189 -4
-140 4 -266 19 -302 5 -13 2 -18 -9 -18 -13 0 -16 -12 -16 -60 l0 -60 60 0
c47 0 60 3 60 15 0 18 4 18 55 1 73 -25 376 -18 451 11 8 3 14 -1 14 -11 0
-13 12 -16 60 -16 l60 0 0 60 c0 48 -3 60 -16 60 -11 0 -14 5 -9 18 17 43 24
129 21 278 -2 150 -3 164 -27 210 -32 61 -93 109 -159 123 -70 15 -333 13
-393 -3z m419 -126 c47 -44 54 -76 54 -242 0 -167 -9 -203 -61 -241 -24 -17
-45 -19 -208 -19 -197 0 -212 3 -248 59 -16 23 -18 52 -18 204 0 164 2 180 21
206 42 57 71 64 261 61 167 -3 172 -4 199 -28z"/>
<path d="M3949 4261 c-28 -29 -29 -32 -29 -131 0 -99 1 -102 29 -131 29 -28
32 -29 131 -29 99 0 102 1 131 29 28 29 29 32 29 129 0 93 -2 103 -26 131 -26
31 -26 31 -131 31 -102 0 -105 -1 -134 -29z"/>
<path d="M5310 3810 l0 -60 60 0 60 0 0 60 0 60 -60 0 -60 0 0 -60z"/>
<path d="M1347 3653 c-4 -3 -7 -33 -7 -65 l0 -59 58 3 57 3 3 54 c2 37 -1 57
-10 62 -16 10 -92 12 -101 2z"/>
<path d="M692 3593 l3 -58 58 -3 57 -3 0 61 0 60 -60 0 -61 0 3 -57z"/>
<path d="M4020 3600 l0 -50 -55 0 -55 0 0 -115 0 -115 65 0 65 0 0 105 0 105
50 0 50 0 0 60 0 60 -60 0 -60 0 0 -50z"/>
<path d="M4235 3593 l4 -58 50 -3 51 -3 0 -45 0 -44 -105 0 -105 0 0 -60 0
-60 105 0 105 0 0 -55 0 -55 60 0 c63 0 63 0 63 55 0 63 0 64 -50 67 l-48 3
-3 43 -3 42 50 0 51 0 0 115 0 115 -114 0 -114 0 3 -57z"/>
<path d="M5527 3544 c-4 -4 -7 -31 -7 -61 l0 -53 65 0 66 0 -3 58 -3 57 -55 3
c-31 2 -59 0 -63 -4z"/>
<path d="M260 3380 l0 -60 60 0 60 0 0 60 0 60 -60 0 -60 0 0 -60z"/>
<path d="M5438 3223 c-15 -4 -18 -16 -18 -64 l0 -60 58 3 57 3 0 60 0 60 -40
2 c-22 0 -48 -1 -57 -4z"/>
<path d="M478 3193 c-2 -16 -1 -43 1 -61 l3 -33 57 3 56 3 3 58 3 57 -60 0
c-58 0 -60 -1 -63 -27z"/>
<path d="M580 2950 l0 -60 59 0 c33 0 62 3 64 8 2 4 2 31 -1 60 l-4 52 -59 0
-59 0 0 -60z"/>
<path d="M5420 2950 l0 -60 60 0 60 0 0 60 0 60 -60 0 -60 0 0 -60z"/>
<path d="M4560 2685 l0 -115 115 0 116 0 -3 58 -3 57 -52 3 -52 3 -3 52 -3 52
-57 3 -58 3 0 -116z"/>
<path d="M1444 2356 c-3 -7 -4 -35 -2 -62 l3 -49 58 -1 57 -1 0 63 0 64 -55 0
c-38 0 -57 -4 -61 -14z"/>
<path d="M1662 2308 l3 -63 58 -3 58 -3 -3 63 -3 63 -58 3 -58 3 3 -63z"/>
<path d="M1982 2308 l3 -63 58 -3 57 -4 0 66 0 66 -60 0 -61 0 3 -62z"/>
<path d="M1120 2200 l0 -60 60 0 60 0 0 60 0 60 -60 0 -60 0 0 -60z"/>
<path d="M800 2091 l0 -60 53 -3 52 -3 1 -40 c1 -22 2 -46 3 -52 1 -9 18 -13
51 -13 l50 0 0 -49 0 -50 115 -3 115 -3 0 118 0 117 -105 0 -105 0 0 50 0 50
-115 0 -115 0 0 -59z"/>
<path d="M1980 2134 c0 -13 -5 -15 -22 -8 -36 12 -418 17 -458 5 -48 -14 -106
-64 -133 -114 -20 -38 -22 -59 -25 -217 -5 -229 3 -266 72 -336 42 -42 62 -54
105 -63 78 -17 347 -14 407 4 27 8 50 15 52 15 1 0 2 -8 2 -18 0 -16 7 -18 38
-16 20 2 47 3 60 3 20 1 22 6 22 61 0 54 -2 60 -20 60 -20 0 -20 1 -3 33 24
44 29 360 7 425 -18 54 -18 62 1 62 12 0 15 13 15 60 l0 60 -60 0 c-49 0 -60
-3 -60 -16z m-52 -124 c18 -11 37 -32 42 -46 6 -14 10 -106 10 -205 l0 -179
-34 -38 -34 -37 -179 -3 c-272 -5 -283 6 -283 261 0 173 8 208 55 245 26 21
38 22 209 22 163 0 184 -2 214 -20z"/>
<path d="M1591 1904 l-31 -26 0 -109 c0 -106 1 -111 26 -134 25 -23 34 -25
135 -25 l107 0 26 31 c24 28 26 38 26 131 0 97 -1 100 -29 129 -29 28 -32 29
-129 29 -93 0 -103 -2 -131 -26z"/>
<path d="M2197 1504 c-4 -4 -7 -31 -7 -61 l0 -53 65 0 66 0 -3 58 -3 57 -55 3
c-31 2 -59 0 -63 -4z"/>
<path d="M2950 1230 l0 -60 60 0 60 0 0 60 0 60 -60 0 -60 0 0 -60z"/>
<path d="M480 4670 l0 -60 60 0 60 0 0 60 0 60 -60 0 -60 0 0 -60z"/>
<path d="M3590 2735 l0 -65 60 0 60 0 0 65 0 65 -60 0 -60 0 0 -65z"/>
<path d="M3733 2143 c-27 -5 -37 -33 -28 -74 7 -29 9 -30 53 -27 l47 3 3 43
c3 38 0 43 -23 52 -14 6 -27 9 -28 9 -1 -1 -12 -4 -24 -6z"/>
<path d="M2194 747 c-3 -8 -4 -36 -2 -63 l3 -49 60 0 60 0 0 60 0 60 -58 3
c-42 2 -59 -1 -63 -11z"/>
</g>
</svg>
